<mxfile host="Electron" agent="Mozilla/5.0 (Windows NT 10.0; Win64; x64) AppleWebKit/537.36 (KHTML, like Gecko) draw.io/24.7.17 Chrome/128.0.6613.36 Electron/32.0.1 Safari/537.36" version="24.7.17">
  <diagram id="C5RBs43oDa-KdzZeNtuy" name="Page-1">
    <mxGraphModel dx="941" dy="1720" grid="1" gridSize="10" guides="1" tooltips="1" connect="1" arrows="1" fold="1" page="1" pageScale="1" pageWidth="827" pageHeight="1169" math="0" shadow="0">
      <root>
        <mxCell id="WIyWlLk6GJQsqaUBKTNV-0" />
        <mxCell id="WIyWlLk6GJQsqaUBKTNV-1" parent="WIyWlLk6GJQsqaUBKTNV-0" />
        <mxCell id="YCrHfRIdKmsX8eZ21hxe-11" style="edgeStyle=orthogonalEdgeStyle;rounded=0;orthogonalLoop=1;jettySize=auto;html=1;exitX=0.5;exitY=0;exitDx=0;exitDy=0;entryX=0.5;entryY=1;entryDx=0;entryDy=0;" edge="1" parent="WIyWlLk6GJQsqaUBKTNV-1" source="YCrHfRIdKmsX8eZ21hxe-0" target="YCrHfRIdKmsX8eZ21hxe-1">
          <mxGeometry relative="1" as="geometry" />
        </mxCell>
        <mxCell id="YCrHfRIdKmsX8eZ21hxe-0" value="硬件: 树莓派 | 主机" style="rounded=1;whiteSpace=wrap;html=1;" vertex="1" parent="WIyWlLk6GJQsqaUBKTNV-1">
          <mxGeometry x="350" y="310" width="220" height="60" as="geometry" />
        </mxCell>
        <mxCell id="YCrHfRIdKmsX8eZ21hxe-1" value="OS: linux | windows" style="rounded=1;whiteSpace=wrap;html=1;" vertex="1" parent="WIyWlLk6GJQsqaUBKTNV-1">
          <mxGeometry x="350" y="220" width="220" height="60" as="geometry" />
        </mxCell>
        <mxCell id="YCrHfRIdKmsX8eZ21hxe-2" value="&lt;font style=&quot;font-size: 19px;&quot;&gt;软件&lt;/font&gt;" style="rounded=1;whiteSpace=wrap;html=1;align=left;" vertex="1" parent="WIyWlLk6GJQsqaUBKTNV-1">
          <mxGeometry x="145" y="-30" width="610" height="210" as="geometry" />
        </mxCell>
        <mxCell id="YCrHfRIdKmsX8eZ21hxe-3" value="Samba 文件共享" style="rounded=1;whiteSpace=wrap;html=1;" vertex="1" parent="WIyWlLk6GJQsqaUBKTNV-1">
          <mxGeometry x="230" y="100" width="120" height="60" as="geometry" />
        </mxCell>
        <mxCell id="YCrHfRIdKmsX8eZ21hxe-15" style="edgeStyle=orthogonalEdgeStyle;rounded=0;orthogonalLoop=1;jettySize=auto;html=1;entryX=0.5;entryY=1;entryDx=0;entryDy=0;" edge="1" parent="WIyWlLk6GJQsqaUBKTNV-1" source="YCrHfRIdKmsX8eZ21hxe-4" target="YCrHfRIdKmsX8eZ21hxe-10">
          <mxGeometry relative="1" as="geometry">
            <Array as="points">
              <mxPoint x="460" y="70" />
              <mxPoint x="590" y="70" />
            </Array>
          </mxGeometry>
        </mxCell>
        <mxCell id="YCrHfRIdKmsX8eZ21hxe-17" style="edgeStyle=orthogonalEdgeStyle;rounded=0;orthogonalLoop=1;jettySize=auto;html=1;" edge="1" parent="WIyWlLk6GJQsqaUBKTNV-1" source="YCrHfRIdKmsX8eZ21hxe-4" target="YCrHfRIdKmsX8eZ21hxe-8">
          <mxGeometry relative="1" as="geometry" />
        </mxCell>
        <mxCell id="YCrHfRIdKmsX8eZ21hxe-18" style="edgeStyle=orthogonalEdgeStyle;rounded=0;orthogonalLoop=1;jettySize=auto;html=1;entryX=0.5;entryY=1;entryDx=0;entryDy=0;" edge="1" parent="WIyWlLk6GJQsqaUBKTNV-1" source="YCrHfRIdKmsX8eZ21hxe-4" target="YCrHfRIdKmsX8eZ21hxe-9">
          <mxGeometry relative="1" as="geometry">
            <Array as="points">
              <mxPoint x="460" y="70" />
              <mxPoint x="310" y="70" />
              <mxPoint x="310" y="50" />
            </Array>
          </mxGeometry>
        </mxCell>
        <mxCell id="YCrHfRIdKmsX8eZ21hxe-4" value="" style="rounded=1;whiteSpace=wrap;html=1;" vertex="1" parent="WIyWlLk6GJQsqaUBKTNV-1">
          <mxGeometry x="400" y="100" width="120" height="60" as="geometry" />
        </mxCell>
        <mxCell id="YCrHfRIdKmsX8eZ21hxe-5" value="" style="shape=image;verticalLabelPosition=bottom;labelBackgroundColor=default;verticalAlign=top;aspect=fixed;imageAspect=0;image=data:image/png,iVBORw0KGgoAAAANSUhEUgAABLAAAAERCAYAAABrWV4jAAAAAXNSR0IArs4c6QAAIABJREFUeF7snQmYHGW1/t9TPUv2ZLpnkpB0T8J2Fbxe9Q9evdcNFRVwQYRAWE2mh8i+IyoCQcQFFURkm0xPAkFEgrK4oiggCC7AhaviVbZkuifbTHeSSUgy0111/qnJBEK26equqq7qfut5fHwecr5zzvc7Z2a63/oWAR8ScIFAIpldD2CcC67cdHFtOhW70E2H9EUCJEACJEACJEACJEACJEACJEACJOA/AfE/JCNWIwEKWNVYVc6JBEiABEiABEiABEiABEiABEiABIJBgAJWMOoQ+iwoYIW+hJwACZAACZAACZAACZAACZAACZAACQSWAAWswJYmXIlRwApXvZgtCZAACZAACZAACZAACZAACZAACYSJAAWsMFUrwLlSwApwcZgaCZAACZAACZAACZAACZAACZAACYScAAWskBcwKOlTwApKJZgHCZAACZAACZAACZAACZAACZAACVQfAQpY1VfTisyIAlZFsDMoCZAACZAACZAACZAACZAACZAACdQEAQpYNVFm7ydJAct7xoxAAiRAAiRAAiRAAiRAAiRAAiRAArVKgAJWrVbe5XlTwHIZKN2RAAmQAAmQAAmQAAmQAAmQAAmQAAm8RoACFpvBFQIUsFzBSCckQAIkQAIkQAIkQAIkQAIkQAIkQAK7IEABi23hCgEKWK5gpBMSIAESIAESIAESIAESIAESIAESIAEKWOwBrwhQwPKKLP2SAAmQAAmQAAmQAAmQAAmQAAmQAAlwBRZ7wBUCFLBcwUgnJEACJEACJEACJEACJEACJEACJEACuyBAAYtt4QoBCliuYKQTEiABEiABEiABEiABEiABEiABEiABCljsAa8IUMDyiiz9kgAJkAAJkAAJkAAJkAAJkAAJkAAJcAUWe8AVAhSwXMFIJyRAAiRAAiRAAiRAAiRAAiRAAiRAArsgQAGLbeEKAQpYrmCkExIgARIgARIgARIgARIgARIgARIgAQpY7AGvCFDA8oos/ZIACZAACZAACZAACZAACZAACZAACXAFFnvAFQIUsFzBSCckQAIkQAIkQAIkQAIkQAIkQAIkQAK7IEABi23hCgEKWK5gpBMSIAESIAESIAESIAESIAESIAESIAEKWOwBrwhQwPKKLP2SAAmQAAmQAAmQAAmQAAmQAAmQAAlwBRZ7wBUCFLBcwUgnJEACJEACJEACJEACJEACJEACJEACuyBAAYtt4QoBCliuYKQTEiABEiABEiABEiABEiABEiABEiABCljsAa8IUMDyiiz9kgAJkAAJkAAJkAAJkAAJkAAJkAAJcAUWe8AVAhSwXMFIJyRAAiRAAiRAAiRAAiRAAiRAAiRAArsgQAGLbeEKAQpYrmCkExIgARIgARIgARIgARIgARIgARIgAQpY7AGvCFDA8oos/ZIACZAACZAACZAACZAACZAACZAACXAFFnvAFQIUsFzBSCckQAIkQAIkQAIkQAIkQAIkQAIkQAK7IEABi23hCgEKWK5gpBMSIAESIAESIAESIAESIAESIAESIAEKWOwBrwhQwPKKLP2SAAmQAAmQAAmQAAmQAAmQAAmQAAlwBRZ7wBUCFLBcwUgnJEACJEACJEACJEACJEACJEACJEACuyBAAYtt4QoBCliuYKQTEiABEiABEiABEiABEiABEiABEiABCljsAa8IUMDyiiz9kgAJkAAJkAAJkAAJkAAJkAAJkAAJcAUWe8AVAhSwXMFIJyRAAiRAAiRAAiRAAiRAAiRAAiRAArsgQAGLbeEKAQpYrmCkExIgARIgARIgARIgARIgARIgARIgAQpY7AGvCFDA8oos/ZIACZAACZAACZAACZAACZAACZAACXAFFnvAFQIUsFzBSCckQAIkQAIkQAIkQAIkQAIkQAIkQAK7IEABi23hCoF4e985Ymm9K85ccqIGns50tjzikju6IQESIAESIAESIAESIAESIAESIAESqBABClgVAs+wJEACJEACJOA3gfjc3g+IYRwKwbjdxR6sa/j6qlvG9QKifufHeCRAAiTgNYGWM1aPGzUYuWqPcSyk012xa73Ohf5JgARIgAScEaCA5YwXrUmABEiABEggdATiydxZhuDfVPUdUD0IIqN3NwkR+YFaWKsGOjLxpr9hvlihmzATJgESIIEdCMRnpUfLhLHXQHQ0FMk9AVLFahG5G9CX06nYdYRJAiRAAiQQDAIUsIJRB2ZBAiRAAiRAAp4QSLT1XggY50MwDUDxf/cVDyqwbEpd9KynOyTvSXJ0SgIkQAI+EIienZ0wdiNsIarNYbiVW1asfjsdj15HMd8hOZqTAAmQgAcEiv8g60FwuiQBEiABEiABEvCOwJB4JcaFAPYqI8qidH+0HUvELMMHh5IACZBABQio7NW+7v/VaeECQE4oLQFdCZGbBusabl11y/jVpfngKBIgARIgATcIUMBygyJ9kAAJkAAJkEDACCSSvRcBxgVlilfbZnVbOhWdy3OxAlZkpkMCJLBHAgfOWj2uf0LdAwL9YJmo+qDWzemulsvL9MPhJEACJEACZRCggFUGPA4lARIgARIggSAScFm8GpqiQO7oTkVPDuJ8mRMJkAAJ7ExAJdGeuwuKY12is0JVrst0Rb/lkj+6IQESIAEScEiAApZDYDQnARIgARIggaATaE1mf67AEW7nmU7F+LnBbaj0RwIk4AmBRDL3Q0Bnu+x8hap1XaarhSKWy2DpjgRIgASKIcAPosVQog0JkAAJkAAJhIRAa1vfF1TkHJe2Dr5x1oK7052x40KCgmmSAAnUMIFEMqveTF9+mk5FP+WNb3olARIgARLYEwEKWOwPEiABEiABEqgiAolk7gFAP+nRlKx0KhbxyDfdkgAJkIArBFqTffco5GhXnO3sJC2i3+7ubP6eR/7plgRIgARIYDcEqkLAiif7Pi8w3hOwKvekU9Eziskpnuz7T4FxaTG2vtpE8hekO6a8VEzMRHv2R1AZVYytXzaq+kCmK5byKx7jkAAJkEClCUw/sz9mDOTtM18O9SgXa3NjdGLvTbLBI/90SwIkQAJlE0gks/atqUbZjnbtwFLFTzJdsVke+adbEiABEiCBahawEsnsXQACtaVBgH92p2JvLqbzWpO9n1QYDxRj66eNYVkHLVvY8kwxMRPJ7HoA44qx9dHm2nQqZl8fz4cESIAEaoJAor3vS1CcA8gUjyasULkp3RU9yyP/dEsCJEACZRPwWMCyr7W4L52KHlV2onRAAiRAAiTgiEBVrMCigOWo5kUbU8AqGhUNSYAESCAQBFrbs0tU8RkPVx7Y88ylU7FYICbMJEiABEhgFwQoYLEtSIAESKA6CVDA8qiuXIHlEVhnbrkCyxkvWpMACYScQCKZuxfQT3s8jXw6FWvwOAbdkwAJkEDJBChglYyOA0mABEgg0AQoYHlUHgpYHoF15pYCljNetCYBEgg5AQpYIS8g0ycBEnCFAAUsVzDSCQmQAAkEjgAFLI9KQgHLI7DO3FLAcsaL1iRAAiEnQAEr5AVk+iRAAq4QoIDlCkY6IQESIIHAEaCA5VFJKGB5BNaZWwpYznjRmgRIIOQEKGCFvIBMnwRIwBUCFLBcwUgnJEACJBA4AhSwPCoJBSyPwDpzSwHLGS9akwAJhJwABayQF5DpkwAJuEKAApYrGOmEBEiABAJHgAKWRyWhgOURWGduKWA540VrEiCBkBOggBXyAjJ9EiABVwhQwHIFI52QAAmQQOAIUMDyqCQUsDwC68wtBSxnvGhNAiQQcgIUsEJeQKZPAiTgCgEKWK5gpBMSIAESCBwBClgelYQClkdgnbmlgOWMF61JgARCToACVsgLyPRJgARcIUAByxWMdEICJEACgSNAAcujklDA8gisM7cUsJzxojUJkEDICVDACnkBmT4JkIArBChguYKRTkiABEggcAQoYHlUEgpYHoF15pYCljNetCYBEgg5AQpYIS8g0ycBEnCFAAUsVzDSCQmQAAkEjgAFLI9KQgHLI7DO3FLAcsaL1iRAAiEnQAEr5AVk+iRAAq4QoIDlCkY6IQESIIHAEaCA5VFJKGB5BNaZWwpYznjRmgRIIOQEKGCFvIBMnwRIwBUCFLBcwUgnJEACJBA4AhSwPCoJBSyPwDpzSwHLGS9akwAJhJwABayQF5DpkwAJuEKAApYrGOmEBEiABAJHgAKWRyWhgOURWGduKWA54/WadeLU7AWwcJTAuqY71fLTEt1wGAmQgM8EKGD5DJzhSIAEAkmAAlYgy8KkSIAESKBsAhSwyka4awcUsDwC68wtBSxnvF6zjrdlrxDB5VAdEMiXurti3y3RFYeRAAn4SIAClo+wGYoESCCwBChgBbY0TIwESIAEyiJAAassfLsfTAHLI7DO3FLAcsZryLq1re8LKvIVAPXDw/NQfcKCXtnT1fJwCS45hARIwCcCFLB8As0wJEACgSZAASvQ5WFyJEACJFAyAQpYJaPb80AKWB6BdeaWApYzXogns+cKcDWAsW8cKhagJkTPTXc23+zQLc1JgAR8IkAByyfQDEMCJBBoAhSwAl0eJkcCJEACJROggFUyOgpY2xNIJLPrAYzzCGepbilgOSTX2p77gqp+fQ/DLIF1Rneq5VaHrmlOAiTgAwEKWD5AZggSIIHAE6CAFfgSMUESIAESKIkABaySsI08iCuwRmbkgwUFLAeQ48nc5wX6zaKGqC4V0XN4wHtRtGhEAr4RoIDlG2oGIgESCDABClgBLg5TIwESIIEyCFDAKgPenoZSwPIIrDO3FLCK5DUjmW23gG8BmFTkENtModqWbo3djvn2FkM+JEAClSZAAavSFWB8EiCBIBCggBWEKjAHEiABEnCfAAUs95kOeaSA5RFYZ24pYBXDa5ZG4hOyFwqkuNVXO/pUnZteH1uMJWIWE442JEAC3hGggOUdW3omARIIDwEKWOGpFTMlARIgAScEKGA5oeXAlgKWA1jemVLAKoJtazJ7rgLfLcJ0tyYCndP9UuwHeEQK5fjhWBIggfIIUMAqjx9HkwAJVAcBCljVUUfOggRIgAR2JEABy6OeoIDlEVhnbilgjcBr5pxXRlmR8ecr5GvO0O5sbYtYLZHYnU93SL5cXxxPAiRQGgEKWKVx4ygSIIHqIkABq7rqydmQAAmQwDYCFLA86gUKWB6BdeaWAtYIvBJtfWdC5PvOsO7eWlQ/O2597K7nl8igWz7phwRIoHgCFLCKZ0VLEiCB6iVAAat6a8uZkQAJ1DYBClge1Z8ClkdgnbmlgLUHXlNOXjm2ob7uXIhc7Qzrnq0FekrDmDV3v3jD/gNu+qUvEiCBkQlQwBqZES1IgASqnwAFrOqvMWdIAiRQmwQoYHlUdwpYHoF15pYC1h54Jdp6T4MYNztDWpy1ip48avSaJRSxiuNFKxJwiwAFLLdI0g8JkECYCVDACnP1mDsJkAAJ7J4ABSyPuoMClkdgnbmlgLUbXi1nrB43arNxjturr7YPZ6/EMsz1S5Yu2nuzs7LRmgRIoFQCFLBKJcdxJEAC1USAAlY1VZNzIQESIIHXCVDA8qgbKGB5BNaZWwpYu+EVb+s9VcTocIbTubUtYln9m+7JLElscj6aI0iABJwSoIDllBjtSYAEqpEABaxqrCrnRAIkQAIABSyPuoAClkdgnbmlgLULXvudrY0DG3NnALjWGc4SrQWzI4X++7kSq0R+HEYCDghQwHIAi6YkQAJVS4ACVtWWlhMjARKocQIUsDxqAApYHoF15pYC1i54zTg1+9+WhW8AeJ8znCVbr4Ban0p3tTxVsgcOJAESKIoABayiMNGIBEigyglQwKryAnN6JEACNUuAApZHpaeA5RFYZ24pYO2CV2Judi4MdDlDWZ61QOcUIoNLlndM21ieJ44mARLYEwEKWOwPEiABEgAoYLELSIAESKA6CVDA8qiuFLA8AuvMLQWsHXjNnLNmkhkxzwLkKmcoy7emiFU+Q3oggZEIUMAaiRD/nQRIoBYIUMCqhSpzjiRAArVIgAKWR1WngOURWGduKWDtwKs1mZ0FRacKJjhD6Za1cVTjmL5fvnjD/gNueaQfEiCB1wlQwGI3kAAJkABXYLEHSIAESKBaCVDA8qiyFLA8AuvMLQWsHQWstr5TVOQ2ZxhdtBb8RQvmiZlFk19w0StdkQAJDBOggMVWIAESIAEKWOwBEiABEqhWAlUhYLW2Z+er4kNBKpKIdHd3Rk8qJqfWZO49Cv16MbZ+2liG1d6zoOVfxcRMJLMPAhhdjK1fNgq9O5Nq/r5f8QIfZ74aiXRuDoBUJXNVRXs+n79r1eKpr1YyD8YmgWokQAGrGqvKOZEACTglwC2ETonRngRIgATCQaAqBKxwoGaWJFBZAtNOzrVGGnAxoGdVNhPAgPH/lqUmPQuIVjoXxieBaiJAAauaqsm5kAAJlEqAAlap5DiOBEiABIJNgAJWsOvD7EjANQLxZO8JAuMHrjksw5Eozt8IK9XX1bK+DDccSgIksAMBClhsCRIgARLgFkL2AAmQAAlUKwEKWNVaWc6LBHYgECQBy05NFMcZVv8DSxftvZnFIgEScIcABSx3ONILCZBAuAlwBVa468fsSYAESGB3BChgsTdIoCYIqMTbsyeKyuIATff5OhhHvJJqWhagnJgKCYSaAAWsUJePyZMACbhEgAKWSyDphgRIgAQCRoACVsAKwnRIwAsC0+ZmE0ZELxaVs73wX7JPwexIof9+rsIqmSAHksAbCFDAYkOQAAmQALcQsgdIgARIoFoJUMCq1spyXiSwHYFE++rjoJG7AgjledPCYcsXxtIBzI0pkUDoCFDACl3JmDAJkIAHBLgCywOodEkCJEACASBAASsARWAKJOA1gQALWIhE9IClHbF/8kZCr7uA/muBAAWsWqgy50gCJDASAQpYIxHiv5MACZBAOAlQwApn3Zg1CTgiEGQBC6qXboLewBsJHZWUxiSwSwIUsNgYJEACJMAthOwBEiABEqhWAhSwqrWynBcJbEcg0AIWAEMi+yzrnPQKi0YCJFAeAQpY5fHjaBIggeogwBVY1VFHzoIESIAEdiQggEoimZsbNDSWYT7Ts2Dys8XkNb2t94OGGHsXY+uXjSrWZbpiPy4mnn3AdsTAR4qx9dPGytff33P7hGwxMVuTfScrpL4YW79sFPq3TKr5z8XEmzE3+9+WgTcXY+uXjcLanEm13OlGvER79jgogngG1tbpKS4066K3LO+QjW7Mlz5IoFYJUMCq1cpz3iRAAtsToIDFfiABEiCB6iQgmK9GIp0zAzc9xeXprthVxeSVSGbtL+bHFWPrl40A/+xOxYoSRFqTvZ9UGA/4lVuxcQzLOmjZwpZnirFPJLPrAYwrxtZHm2vTqdiFxcRLtOduhuppxdj6ZaOK1Zmu2JSy483SyPQJa08wYN1eti/PHMigJbpvT2cs41kIOiaBGiBAAasGiswpkgAJjEiAAtaIiGhAAiRAAqEkQAHLo7JRwPIIrDO3FLAA7JVcM6MO5ucBOcMZPn+tTQutvI3QX+aMVn0EKGBVX005IxIgAecEKGA5Z8YRJEACJBAGAhSwPKoSBSyPwDpzSwELQLwtd7hh6CJVTHaGz2drwezG0bn7Xrxh/wGfIzNcjRKY3pb9L4EeDAMungdp5Ezd/NiK1LRllcBKAasS1F+POXPOmplWnfVRCzrKjUwERt4yzTTGND7Zc2NxW/rdiEsfwSEQP61vuuYjHxLFJBhm+b+rLHlVUXiqp3XyXzFfrODM1N1MKGC5y7NUb9PmLW+OWA3vUWDG7nyoGi81RvD4yx3RdaXGqYVx8fN1tKzre4uK8XaIjnFjzgLDNCx9Jl8XfY7HeDgn2tq2+r0wIgfu6W/+qE2y6MUfxPqde/d+xMw5OkojvQdYiLxDRV3bSRVR4yUxC08vndmy2ou/MxSwPOoNClgegXXmlgIWgOlzs8cYBpY4Q+e/tQieLhgDhy3vmNbnf3RGrHYCre3ZjwB6gKpEXpur4AgoDnV57qsAuQ/Qf27zqyK9hmU80d016WWXY+3kjgKW14Rf9996avYtauohEGnY9l8F1oEK4wQArny5AJAH8E8R/FIVK16Pbq0YrDd/t+qWqav9mzEjeU0gPi/3VilY79++p1R1XwiOFUiLS/HtL1IPQfAEFEMClihUYbw8uW7SL5/uELvnQv9QwKpsCSe3r5rSYNUfahj6Nkv1UwJ5024zUvwVIg9ArL+YxuAf+DkQmHLyyrENjQ3/D6oHv8ZNMW7L34J3AXi/AuPdqbCYEH1YFY8JYB8HM/wYT5uRSU9R1No15USy79OiMhMin1K13g2R0buth+AqKNYMDuY7Vi2e+qo7dXPuZdq85WPqtfHtljXUQ1sfWwhV42BADwEwybnX3Y74m0J/K9AMYLx2VJWo+ZdCXeGZ5R3TyjrzmAKWi5Xa3hUFLI/AOnNLAStEAtZQadWanu5qWe6szLQmgZ0JJOat3ReFwmGKrW8pRYxjABwE4HUByz9wK6D4lcL6x1AuhvzLNAZ/U+4f8F2lTwHLu6LOnLNmkhXR4yw1J2ytY+RgKI4EtNG7qLv2rJBlInqvWtbQ78uIRJ5flmj6pRdvOv2eWy3Fm3FS717aGPnUtp6CGO8S4OMAXFnBVzRLhULwD1h6p4oOGmIMWmI8l+lseqRoHwEzpIBVuYJMm5drNUy9QIBZAKY5yOR5AL8CzPvTqcm/dzCuCkxV4sn+faGDR239+2KMh6W2mP2BykxOfi/QRyy1NgzlU1f/k/SaiUuxRIJ3brbPgOJt2aMB/arIkChb/KpYwVVayC/JvDrleb84zmhfu7dp5e3PvzDEGGdB3yOQD/uM7LVwAnkYor+3LGtIyKsbNXrx0pvG2i9+1UlOFLCc0HJgSwHLASzvTClgUcDyrrvoOXAEprX1vsmQyEcMWONVjDdD9WgAYwOXKPA3QO4XWK/C0r8a2vzQ0kWy2Y08KWC5QfF1H/HkuqiBwVmARBUSBdDu8ltKVxIW4FkVvUcUlqXGs5nWpgcpZrmC1nUn9pf7SAFHiFhNCsQBsVfsufnm24WcdQCQvwj0F4BhqaHPphfEHnTBsW8uKGD5hvq1QFNOWz+5sTD4aSjeqVt/V5b4yCNA4YrqF7FUZrSvmqlaNxswbFYHKvSkEqF5O0zkdqj1ggCmUR/54dKpk7pr7m+MqrS252wx6CoFdr+icA+VEODHUNzdXffKveg42JPVrvbfmDrTOtFOQ1X2h2Cut81RhneRG0XRA3sxcEPdLd03T1pTjDcKWMVQKsGGAlYJ0NwfQgErZAIWD3J3/4egFjzG27JJsd/yGnKAqn5CXFta7z09BZ4VkV/A0s0i+kR3qvm35USlgFUOvdfHJpLZNiimqyAmipMgiLnj2Q8v+rSq/hQS2WQonujuij7uR1TG2DOBRFvfHEASEMwE8GkAtiAahsd+M/4XKH4mhrGsMLDpkeWLp3UHPXEKWP5WKH5K33SpN74E4FhAm8uPXr0i1ox5vXuZZuRkEW2EYl8Any2fl68e7HN1lwpgbYL13b6ulu22Hvqah6/BEu3Z46D6FUD+rczA/7AEbT3x6J/dEgGnn9kfk835o0SxFwzMgCJZZo6VGH6dvdWycQDXj3RmGAUsj8pDAcsjsM7cUsAKmYAF4LrBwfxlldwj7qzFaF0pAnu3b5hSwObPqCWTxcCptthQqVxcjPsHVfxGVR/rWRh72OmSajsPClilV2O/s19o3Pxq1H77HRcZWj0QL91bEEbKgMJ6AiqPGqKPlyuOBmFGYcth6twVLQ2RhqMsC3uJoA1Aa9jmsH2+CiwTxe/s/zegf+juan4oqPOhgOVPZYZ63GiwVxH+e3mrrnaRryC15ZC2+T2dsYw/s/E2ypBwVTDmQTBdIKdUYvu56zNUfEeB9ZthXVvNQlZrW/ZYC7hSBG92g6EAPzfM6DHlrr7fu33VlLxVd5qINEP0aNgCVvif61SxLp/Pf3t33wcpYHlUZApYHoF15pYCVvgELB0czE9dtZgHEztr9dqxjn9u3f6GmT/cUvl3+/whkYDfrllaaR4H5FEL1sM9/b97BEuOLfrMCQpYzoE3t/WOHwVjtmFgf1XMtnVA514CP+IPAB62RB/u6Wz+XeCzDXmC9hl8ahYOFzHeAtUjgar4UvEGLUsET6rid6L6aBCFLApY3v8QzZyzeqpZV3cFVO3fmx5sg5WXVXF5piv6A+9n412EKSevnNzQUH+2AFNdF/m8S9uRZwWuF+gGaaj7TrHbwBwFqKCxfZs7BF8T6NvdTEMg17REmr5cysUZQ7d7mo3nqshkUZ3nZl4B8nWdNar+6p4bx+d2fKFLAcujKlHA8gisM7cUsMInYGFwMD+FApazRq8F6+mnZGJG3ZhZMPBBKD4MaIi2dJVWIVU8YQB/sCLGzzMLmh4txgsFrGIoDdvM17pEz9qTYOlBgNpbukK+4qqouT+uIo8D5oOZzpbQHtBd1EwrYDR17vqWBiP/GYV+ENAPwb2bAyswm6JD/sFeNaqI/Lqnq+nhokd5bEgByzvAraevbdJB096idAAwtLLQu0f1URjGZenO6GPeBfHG8/RT+mPSULjIUG2uVuFqF+RuVejaCf2rLn9+yVsGvSHrr9dEW7YTgpMBvHbjsFsZmJGBsU4u9LF/9qy89Xl7C3oVC1ev4VVBh8J6uife3IX5Utj2DxSw3OrAHfxQwPIIrDO3FLAoYDnrGFoHkoB9doyIvEcV9luwatgq6JTz76H4Cwzz/nTn5D1+iKeAVRza1ra+U9SQd2y9RRB7FzeqqqweA+RPQOGn1X9Qsi91k3h734mi8kEAH60RMXRHsPYqv/sA+VU6Ff2bL9T3EIQCljcVsFd+GGajvRrFvtzCg1VXO+VtKfRLmVTzN72Zkfte7RtrzYheKtBJNSRcvQHk1hVZkk+nohe7T9grnsaNAAAgAElEQVQ/j9PmZhMRwQIIPuZFVJtTpj964Ui3Eu53YnbCwCi5TAUTakG42oF1WlV/kKlbevm2g+8pYHnRjVvv1PxndypW1D7Z1mTvJxXGAx6lUrJbw7IOWraw5ZliHCSSWfsAv3HF2PpoQwGrygSsxJy+dyIix7vdQwLtVSP/UCS/+a9LF+3tym1wbudYi/5ak30nK+QdgHwKUPug0xp/5BERPAhTH+heGLOvG9/poYC15xaxr782gHepDB2ivX+NNxQg8iigt8GyHkx3tSyveR4lAIgne08QMd4JxREAyj3ct4QMAjREkYXoEyp6baVX+FHAcrcv7K3WY0TOqsStZgL9Uneq+evuzsh9bwfO+nvD+vGTDxMxPlmrwtUuqF4H0b50Z/PX3CfuvcdEe/ZCKC6AfVGQR8/kSLRhd9sIZ855ZZRZN3GuAm+vQeFqO+IyAJVj06lJP4WIUsDyqBkpYHkE1plbClghFrBa23NfgKV7wRDZVna19AAIDnXWBkVZr4XoU1DjJRG8tuRZgX/UoeEnr3SOW1WUFxq5QmC/s7Vx86u5kwR6CUQoMryR6hpAHjcs/cayhbEndgROAWt3LajSmlx7kqp1MQQHbrkGO+JKs1aFE3kJgj+LhZt4Y2HxBW1u0/GjkDsWwEVuHexbfPTAWz4uqv+jhrGkUlu/KGC51yP7zMtNzFv6HSiO9uasq5FylfssQ67sWdD07EiWlfr3KSevHNvQWPdtVbxLhl688dmOwLotZ0um0qkbtqzGmr/lXP7wPK3tuTtU9UQvM96dgBWflR4tE8ZcBwy9HKnGszmdYn0q/VL0v/CIFChgOUVXpD0FrCJBeWtGAcv+jdeW/SgEqRBtaVgEyCZAjwPQtHVBY8WeNIA/ALLGzkBg/WlgMHbPqsXyasUyqvLAQ1u7oO+HGPZWnH2qfLplTM++Ylztw95/tP12HQpYOyNtTWZnqeoHIPiIC9dfl1GzoA+V3wtwp1Vv/SxzS3NP0LOtZH5Dq65gfBSQ9wHK31O7L8ZjEPPSkbY+e1FLCljlU42fr6Olf82lWz5DJqB6SvkeS/awViBf6E5Fby3Zg1cDD9G6xL59x0AN+7P2XK/CVIFfE6ILAOTSnc2XhmU+FRGw5j1VnzD3/gYEE6Gwz5rj8xoBuTWdajqdApZHLUEByyOwztxSwLJVq1P6pku92Mtf7f/xKY/AvxTyJwO6WTTy4LLWifdivoTqbVJ50/d29JB4JWJ/sKntbThFYhZgvX3Qu6pekVnY/Cd7GAWsN8KLt/edJCpfGD5s2CgSbQ2byVLAesZS+XZPV+zJGgax26nHk7kTBPrl4Z4iopEJPG7fWFhQ84fLU5P/Z2RzdywoYJXHcXj1x82AHg1IxY8IUeglmVTzNeXNyt3RB83T+tVm7hYA7waGVvbyGZnAhi2bQxakU7FQfCfxXcCapZHEhFwHgJO8ODR+5PIE3yKdiEYoYHlUJwpYHoF15pYCls1rvhrx9JrZAg31NcTOSu+DteCvsPRphTyRz+fv582JpTOPn7ZxuuQ3HSvA5xR4U+meanSkfY6RFi5PJ1qeSKTXLBm+Uc9LGPl0Kub6bTxuJmyf1zJKjOOguJDbu0ohK7+3RC/p6Yz9sZTR1TgmPif3VolYRwJyAsUrxxXeqMCTEQuX72rrs2NvRQyggFUEpF2ZzNe61nT2asCYplD7S3QgnsAJWFuFBnt3w2cDAShUSeiAqtxqNEbmd988aWiHQ1AfPwWseHLdfwoKpwOYE1QegchLMJsClkeVoIDlEVhnbilgDfNKtK8+Dhq5yxk+WhdHQF6G6HP2QcjpeOynXJFVHLVtVom5ueNh4DjAeicgnh2S6Syr8FnbXw63nJPwZwEO92EFW6AFrER735FQOQrA+7gNtaxefgyqXWZdw8+Wd0zoK8tTyAfbf0NVI6cK8DYAzSGfTiXT/4Nh4fN+iFgUsEoo8yyNtE7M3qYq9u2sFV91tf0MgiRgTZuXe2+dab9wC47AV0K1KzxEBwB5QIB/dKdiV1Q4md2G90vAWm3m7O2V9nZ0+3MLnz0TeJ4ClkctQgHLI7DO3FLAooDlrGPKspb/heDvisIdmc7JvyjLVY0Mtrd3wZJLRYZWXVXyrLNqIW6fzWavjKr3eEKBFbASc3uPh2F8YcvZYAcA6jUHjzEHwb28COBvIuZXuztbng5CRn7nkEj2zgaMy7nqyh3yKnhCLevLPa3Nj2G+FNzxurMXCljOyCbae6+DRqYCOtvZSB+s7RXvYnw5vaCp4je2J5J9ixTyJtm6bZBPeQQUwBoFFmdSsfPKc+XNaD8ELEDuGj73l5+DiywjBawiQTk1o4DllJgn9hSwKGB50lh7ciqQZy3BpZnOpl8CYv9x5rMLAsNnE13mw2oh8nefQCAFLPtgbahxGbcMulxwhULwhIh1bq2JWMOrl+3VAQe4TLXG3elTABYO1hfuWXXL1NVewKCAVTzVRDJ7FwQfhwZr1dV2M7jOGlV/dc+NE7LFz8p9y0R77k6o2jeP8hZbd/G+qopUpit2rrtuy/fmj4BVfp615oEClkcVp4DlEVhnbilgbROwhm4ilFsBnekMIa1LIyDPAdZLULk13RX7dWk+qndUvK33RJGhFQ08rD2cZQ6cgGWvvBLDuIJnqHnXUPbKmYhpnb1sYcsz3kUJjmeKVx7XQrEUgnsi9caNS29pWup2NApYIxNNtPfdLCotCnwmyKugBfql7lTz10eekXcWw+KVfTs2LwPxBvMGEVnY3Rk9xxv3pXmlgFUaN69HUcDyiDAFLI/AOnNLAWuY1/RT+mNSnz9TgCudIaR1mQSeg4VL0gtjD5bpp2qGD4tX9oqG/atmUrU3kUAJWBSvfG3AP1qGeXrPgsnP+hrV12AqifbcsWphPlfzeQ6+D2K0TzYm/eLpDsm7GY0C1p5pDq26Aj4JYIyb3L3wVWkBa5jVMVx55UV13+AzcCIWBSzPa15SAApYJWEbeRAFrJEZ+WBBAWs7yPb2GoHBmwh9aLztQ6hiXqYrZh/OWPMPxauqaYHACFjD5xPZwjxX8/nXXn+2tDCvp2vKc/6F9CnSfDUSy/qOg8iVEKHI7g/25xQ6L5Nq/rOb4Shg7ZpmItl7i0pkuqgeBqDOTeZe+FLIYonkr0x3THnJC/8j+Uy0Z38EHVqhFnhWI80lDP8uwHqF3JZORc8OQr4UsIJQhZ1zoIDlUV0oYHkE1plbClgUsJx1jMvWAuRV8Ll0Z2yhy65D526rgBq5EtD9Qpc8E96RQCAErK1bvOq+yp6qSIM+pSLJTGf0fysS3ZOgW1deQYU95QnfPTgVeUZgznPzjDUKWDvz3rqSSD8ByFi/S1xivMcsNa7o6Wp6uMTxZQ1LJLN3A7BvtKV4VRZJZ4O3ilh6RzoVO7PSZ8lSwHJWOz+sbY2FApZHpClgeQTWmVsKWNvxmnnqmrdbln5VoR93hpHWZRC4Dmp9O93VsrwMH6EfuvVmuMhVgO4b+slwAjaBigtYFK8C0YhPAzInnYr+LRDZlJnE9Pa1xxha+DogFNnLZFnScMXH3DwzkgLW61VItPUthMh0AB8Yvqm2pBL5PCgP6LcHBwtXr1o81b5h19cn3pZdIoIjfbjV19d5hSXYsIi1OJ1qPrOSOVPAqiT9XcdWS99NAcujulDA8gisM7cUsLYXsOboqIKRPVVEvucMI61LJKACOb07Fb21xPFVMWxYvLJXNOxTFRPiJCouYLW2ZY9Vka9REK18MyrkfwxLT+peGHu+8tmUnkG8LXu0iHyDq/lKZ1j2SJH7LTE/37Og5V9l+wJAAWsrxeHDx20hJvBnXW1X9wzUWmjWRTqXd0S73egHJz5ak9l7dOv5YA1OxtHWXQLD2wkXp1PRiolYFLDcrakb3tKJaIQClhskd+GDApZHYJ25pYC1A6/Wtr5TVOQ2ZxhpXSKB6yKmec3SRZNXljg+9MOGb/H6BgDefhn6ar5hAhVbgdWazM5S4JsA9q4upKGezXOG6PHLOpv/EcZZxNv7PiNqfIsie6WrpxvVihyRWdj0qBuZ1LqANb2tr8uQodWE7wQwyg2m/viQO0WMawfNSPfKheN7/Yn5epREMvtjAJ+geOU3+V3Hq7SIRQErGH2wLQtVHJPpiv2YApZHdaGA5RFYZ24pYO3AK5HM/buqXiEC+zYVPh4SUOjZmVTz9z0MEWjXtnilGvmmADMCnSiTK4VARQSs6XOzxxgGvkVBtJSSeTtGgefUsI51a/WMt9m+7j3e1neUiHyHgqhfxPccR6CHdqeaf+tGNrUsYCWSuR8Aaq+6CstZVwB0o4jcUTDk6kqsurJ7Lp7MLRZYswBpdKMH6cMdAsMi1h3pVPQMdzwW74UCVvGs/LAcHMyPs7cUU8DyiDYFLI/AOnNLAWsHXgfO0ob1E7OnQqVmhRVnLVSiteI7g/n8NasWT11doodQD0u09x0JlWt4M1yoy7in5H0XsFqTfR9W4BuAHFy1VMM9MRXopYYZuXnpoqa1YZhKItn3aYV8lyJ7cKpFAau8WsSTvQsExlsh+A8oRpfnzdfRSwwr8g3U169Y1jF2ha+Rh4Ml2nqnQYw/8AVJJeiPHLNSIhYFrJFr45eFqLyvu6vpD/bB/hSwPKJOAcsjsM7cUsDaBa/E3OxcGOhyhpLWxRIYunkQel461XxTsWOqyW7aPB1TV1hzjopeDcAIy9wUeDYCs62UfFUj+6vgOgDTShkfwjG+Clj7nf1C4+ZNTZ8TlW+H7EDd5wyYc0upryKynwLfDVNPiWK1GHpIGLYSJpIr/x2ovxzArFLqU8Ex3QbMTzuOb0RGmxY+JsAXg/wzRAHLcWVfG9CazC1WqN0b40r34vNIxSYAd5mKK5YvjKV9jv6GcIm27K8g+FCQfz524LN5y8rR2wzL6oCh6pSdpZHPD63SEwmR0CkvWlq4tKdrsn07pC9PbQlYugKQlAHzJ07hikQaTQufB+TjEHX97DiBvLc70fQk5otl50YBy2mFirSngFUkKG/NKGDtgm/r6WubrAHzHBHM9xZ/bXoX6DVmvuGantsnZGuRQCKZmw2o/cV7SpDnr6r3KiJXiqVDfwwNw3i1u2vSy6XkPHOOjho0+mYYVmTrH23D/A+I8TUBWkvxF4IxvgpYre3ZY1RhXz6xV7DZ6H0GIl8xTS0MfcBqyG9Md0x5qZSc9ztbGze+2jdzW09JnR4IHTpkPOjnyb2ASOHwUuddCivnY1TiyTXHC9S+YCPgX/b1JyL6NasQGbTnqfXmQEnbNOerEU9nJgnGTlNzy2d/uz8N6yCIpIL0ooEClvNujrdlbxXBuyD4t3CtupL7xNAvG3kzW+mzQhPJ3AOAfizg517ZvwN+qObQlmcY9WoNRPK9q24pbaW/veJMIkaTlZehF41GnV6uwMcD3kP2C+IHMp2xWRBxLNo5/+kCqlzA+oNAvmmZWGqzsQxz0JCG3kxqYs4xq/nzjfjKs/aSfKFJzYatf2PqzDZo5ERAWxz7226Apfjvntbon7aJVxSwyqE5wlgKWB7CLd41BazdsIq39Z4qYnQUj5KWxRAQ1d9t+VZweXcqai9Dr7ln+IBtW2iYGsTJK/BPQyInCgobYejaZR0t9gH7rn8Iis9Kj5amhmm2+KCQ96ml10IkRGeRjFg93wSs4TOKbgywePU3GNpmKDb41VOmynsEQyv+Aiq+yMuGGIcu65z0yoidVAGD4S3ONwe1p1T1UbFwsVG3raeaV9pbJtxGNW3e8jENGNeq1qCoqe9Tw6j4jbkUsJxVOdGeuw3Qz0CD+rtgV/PRARXcEzH04mUdLRXZLrh9VgEXrywF7o2IXpYvQM1RhVypgtVInTVzzoapg8amifWGGBbke1D5gC2ZjzSuAv/+qgJ3ZlKxeX7ErkIB648KXBkRXZY3ZcOkDdFVzy+RoRckbj/TT+mPibE5Gqkz6kzFhwG52OGLXdPSwvt6Wie/QbyigOV2pbbzRwHLQ7jFu6aAtRtW+8zLTRws6HlchVV8MxVjqcAVo8ZEv/niDTJQjH012STa1xwJteyz1eLBm5fxAcsorLSsuoEVievTmD9/aNWVH8+Uk1eOrW8w9oJlxERwMkQqdh20i/P1RcBKtK39qMC6XkXf7GLurrhSyzpE67BCJbJ5+bSmzPZvBl0JsAcntvBgmHXTxDSaEInMBqwLvI7p1L8AX6mLyLUvd0TXOR3rpX1rsveTiqGXN4ET2S3RD0M0IwPyamaf2Ao/e8r+PVU3KjLdMCMfUtHvCxDxsg67800BqzjqiWTuRkA/CMHMgK+YecOEBPiFZZrn5U1rXRDOCN2rve+AOpWfAdinOPJ+WenTEFylkfrn681I/yud41b5FdmOY6/OUkvHar2IocY9ULzVz/hFxHoVIovTndHTi7Aty6RqBCzBQ5ZYZ0KNjRPXrVz9/JK3eCJa7Q52yxmrx40ZtFoKEqmPaOSHqvqOoZ2Au3x0s8A41KqLrM7kJryMJWLuaMYthGW19e4HU8DyCKwztxSw9sAr0dZ7GsSw30LzcYGAiHzLKMjXwnKAsQtTfoOL4bPV7O0ou/mD5HbEkf3ZIoMhVrp7/eRlu/oDOLIHFy1maaS1ed0EwzSmWFZ+tiqucNG73658EbCmJ/tONiCLgrTFyVLrQxFYy7pfntyNR2Roq2DFnvlqzFy6doIl1jQVazbEuKxiuewceJ0hkXcEaRXW9DP7Y5FN+bPs018DxAmi+hHAfDkIPWULWaMaR002tfBxUfkexN/f5xSwRu7MRDKbAnQ2IGNGtg6IheomFeOe/ODgRUEQrrZRiSezDwnk/cFZaaSPmA0Np0UGBtaPX9/c59XKGCddET+lb7pRZzZaqPu5CIL0MulxU6325V0t/3QyH6e2oRewxF7Ra7ZFDLz6SucUX4XQ3bHe1lO7+3cxVJetm9K9p8/tFLCcdnKR9hSwigTlrRkFrD3wtdXwUQPGeYBc5W0ZasC7QkXki92p6DdrYLY7TTHelj1aBPb2k1gw5i9nqln4TWZpyysVFxl2AqLScgbGjtq05pOI4ItQDdqbzWJK6LmANbzNyxZEA9FThlgXFaTxpz0vjH85iD3V3NY3bowYhwHyRcXQm80gPMtNC++u9OHM20AMrxK9HcCEIMCBhcPMevnHXmha8XSH5AOR03AS9io/YFRzxNSjt/C61o/cVPTkusL6e5Yu2ts+nLrsJ5HM2m/tPbxIRO5Lp6JHlZ1okQ7i7bnvieonIJgaplVXEDxkmmirGxXZ0H3zpDVFTtdzs9Zk9ucKfCQgh7b/HaKX5s3GJ1YuHNfnxZbhcoHOmNe7V0Ebxxtm/sGhlX8Vf+ydDtZd6VTzHC9TCauApYInLEOOt/IDm1Yu3KvXS0aV8E0ByyPqFLA8AuvMLQWsEXgl2rNzVXG9AOOdoaX19gQEcs2mxsJVvTdN3lBrZFrn5j6hhtpbcoJwwLalYnwY6zb8KbMkvjmIHwK39Yd9s96GDeMm1Ev9qRCxb2wM0+OpgNXatvZQFesWQPcNABTLkMhHzPETn8xch0D31IGztGFt0/oJhjmYFNgHvgfgMeRMUzYvWt4xbWMls5me7P24AWMxgKZK5jEUW+RRNa1LptTHngmacLUjG1vIqrPGHKBqngGgpFtai+at+Fi6K/brou1H+nxTRQJWazLboYKTQiVcAZsheEC17vSSDoV2qxF24We/9mx8QPErAG/xMEwxrhWCx/Pm4NHRDbl1fm/rKibBN9qoTDltVUtDvv5hQN4MqIcCcVHZbRZgcbeH52GFUMD6m2Hgc4WB+n9W82VSFLCK+vlwbkQByzkzD0ZQwBoB6tBh0+PHng/RsH2B9qBdSnNpbx0cGBi8ctXiqa+W5iHcoxLtueOh+oOKbx20cFhdpPHZV14cmw3eCpnd19j+gthYqE8UIGeH6HwsjwWs7LEq+KG3qyeK+Lkb6qnCs6+8ODlUPWX/Xjcnjp5ZZ+HMSveUAOutvB6Qub25pwji3pjMVyOxbM1xMPRObwIU71XF/LixseHJ7vyv+7Hk2J3O9Sjek4+Ws+6ONI//4JhRIqfbN1Z5Edn+OyqGeZ2bh3pXwwqs4bOu7FVwEwGM8oK9Rz4fH6xvOHr8+sHNL/4g1u9RjJLdJtqzv4Hig6jQWW/Dif+pTgpHmhsbB7vvDM7KtGKg2odzNzRsqito3TMAphUzxjMbkftNo+mE5R3iyUuSkAlYT1v5TR/r2TR9bcWPzfCs4FsdU8DyCDAFLI/AOnNLAasIXjPnvDLKNCZcDMFXijCnyfYEBD/UgnlFZtHkF2oRzPANcfaWnIrehmafIdPdGnsE8yt8JlHJTaAybd6K0Uah8eKQXKzgmYCVaOv9lIhxh1Z6VaiFw9KvRH8bJjH0De2nKtM+t2J0pNB4YQB+t6+JmOaBSxdNtm/99P2Jt+eOMFTvqmRPCXS9Wuas9CuTQ9tTQ58V6ifOgTX0wivqaiHVOjKdav4pxL3bFsMuYG0Vr6wkII2usvbUmQyqWL8etUlODKJwZU89nsz9TKAfrfDWwafqI3Jo0C65cNoaraevbdK8+XdoJVfgyyBEF6c7Y+1O8y/GPiQC1joBFtVF5Iqw91QxNdkqYNlXL8zL2cp+oB6jMbv5xRv2L+omL/sN9iiMCtRVn/0F0+rrallfDNSD5mn9GqwJ3GGML69p2lCsgrvfidkJ1tgtX70C9FiD6waKPUvBfmPd0DS2IUDpw3hV1a8PAPbbFKMu/0UILgwSg4DnYl9rfnU6Eb3Cz9uigsNEJZFccxyg9kqZijwqKKjqYT39sUeK/V1VkUSLDGpvKxzcFP1iCA5490jAUpmezB1jAHcXicx9M9VNAnyqe33s4Wrpqc0bo5cIcKX7sBx4VGt6uqtluYMRrphOm9P3ZiMiXxXAXsVSkUeAY7Fpw0Pdy19ej0c+WNmD/8sksO3zat6yzoLKV8t0t3W4mLPTL7b82G2xOKwCVrwte70IPgtgNIBAfS7dY70Ff6k31n5kM0bnK71leE95JpLZJwG825XedezEvl1Nfrqp0WyrliMnmtt6x4+WyO2AfrxyoqC8CJWr011N9qUvrj4hELD+3rgZ/12o7x8s9juvq4Aq5CxQgkOFGDAsCdQ8gXhb39ki8p3K/fEJYwnk2+P7V1wa/DMLvGGbSPZ9GjDuArRCb4fl62YEtyyf1pSpJgHR/oK4upC9GIZ8OcDnnXgiYLUmez+piCypYE99H4X8d9MbJy+tBvFq20++3VMrzexFBsS+fa9SX4g35q3BmX4fJjsjmfu4JbgPqnXe/CYcwau9smh988+rqZ/sGQ/9njKzl5R/CYx1fLq/eYkXfMIoYMWT2e8KcCaAyvRrST8kMqCCX2Hdq8dnliQ2leTCp0HDWwc/VInt6ar4PxT00FETY30v3mAfQF49z35na+P6tavqGhrq7ZcUFbgkQyyFdWcm1Xyy21QDLmD9Q/s3HhT0nzu3azL03sMLp/RJAiQQDgKJtt7TIMZ1wx+WQvSBqeJ8r02/FL3E7TfGFZ9VkQlMnbuipcGoO0thXF7kEHfNBLN13cYHgn5Qe8mTPuThutZ93368wrwMkP1L9uPdQNcFrNYT1jZhtHWqQj05Y2ckFGrISZZsvnd5x16bgnz4/0jz2O2/D/XUfxylgsugqMjNl4OD+SmrFk9dXfIcHA6c3tb7QZHI3QJtdjjUJXM9Kp2IPVBNAvsbwByidYl9s1/Yco7QVSV9nbCsE9Ibmu/2Qryy8wyTgJVI5r4F6FnDLxEjLjWg924Ef40U+v8z1jDTDPqFBMM98RiA93oPZqcIz2v/xoOrXWgY2mYcmWDfeOf/sRIKeythKp1qti+ccO0JsID1r8Yxuf8odreaa0AC4ogCVkAKwTRIwE8C8bZsUgS3DL+FqvQtIn5OvfxYgu+m49ELq/ZLSRGEEu19R0LlJ5V4iwlYxzcuX3vvi78sbot5EdMJqIm9nS57kjEkEup+AUvSfQFr622W91eip1Tk5FGjm5ZU21vxnXvG7qk1Rxiw5gNycAV6qmDl66f6dTNSvG314SKRX1RgngC2iFep2P1VKYZuD3S+GngERuu+ucsUKOqFhqh+tvvl2J14BKaXfMIiYA2LVxdU4ndf6T8bkgfkkXT/pMO9EiBLz23XI+Nt2d+KDB3c7vd333+l+6MHhoVT2dxtYXu/XH9FVpCL3J7ujNrbb117gilgyUvp/qY31UxP7aKafv8Qu9ZQdEQCJOCcQGtb3ykqcpvzkRxhE1Dg+kwqdl4t0xh+w3bClhfcKb85COS0gcHBO2rpxsd4su8sAb4MyBS/ee8hnqsC1pSTV45tbGg4SaG2qO7zo5dZ+Yab/RJVfJ7cLsO1JnOfU6gtNvh+e5SVr2/2g/WMU7P/bSp+KIpW/5nb4lXzff7HDUbE1mTumwr9/PbZqFrzMl0tC/zMMOgCViKZ+xqgX/STiTux5MV0KhrElcF7nF6iPfcIVD/gDoNivWxhlWh6Uy2+8Ewks4MVOJZkLYDvp1Oxy4qt0Eh2ARSwlqZTsb1Hyrva/50CVrVXmPOrUQIqOOSRCHAIWvfJfUaBuyC+v3WqJvaWiNzY3Rk9p5omVcpctp5TZDxQythyxijwZ1HrzHRXy1Pl+Anj2Hh77uuiQ18Ig7Ja0lUBK96WO1xEK7FS5nEjEjl3Wcck+yrwmnoSydxXh788+95T9RGZ5PVNSYm52Y/BwK98LqqpiuMyXbEf+xyX4XZBIJAC1vCKtcS+a+YDemmoCmdfcCHyu+5U7BOhynvo5sHsQwJ82Oe8u81I/UHLOyb0+Rw3IOFUEu1rBitw/uCidCo21y0IAROwXkmnYvu4Nbcw+6GAFebqMXcS2J7AfDX2y744dBvn4Kbo+y1L7xCRyYRUDgExoWpCpCOdip5djqeqGDtfjXgm+2lR8fsLWkJ6XRoAACAASURBVN6CdVRPquXnVcGxhEkMr2qwbwkNwvko7glY89VIdPd9AmLY2wf9fPJQ65h0V4vvYqyfk9xTrER77mqoXuJ3T5mR+hYvv9TZZ/TVScOZIrjCR9YqMObuk5j0g0fmS6hvGvSRmaehAidgzdJI6/i+L6sMnR3pu3BcBmwLQHdoV33Me6q+1dznQYXa2wd9emRAYP2sO9V8jE8BAxkmkez9DmDY22P9ewQPKeTCTGf0f90IGiABK51ORWd4ue3aDV5++aCA5RdpxiEBNwnMV2PKS6vsK5aHHmu8IWMG5AMWjJ+5GabGfRUEcpeFyLmZ1MRcjbMYmn5lVsrogEBndadaflrrNWhtz12jqvYW1iGhuoKPawJWoi37UQge9Hcuat8ANbuWt3lt4z28us8WRn3rKQGeLkQG3r+8Y9pGL+o+vb3vQ4bKb73wvVufiqViYF53Z+w3vsZlsN0SCIyANe+p+imb4g319fUXicC+CTQsjwLoV9XfZLqaZ4Ul6R3zbG3LLlHBkT7+jlMB/tWdir05rMzczDuRzG4AMNZNnyP5EmBBdyo2byS7Yv49IALWqwAuS6di9qVbfCpwkB2hkwAJFE1AJXpibvyksVs+8uzwDFh6gAGx9/M3Fu2Ohg4IiL13f2E6FT3NwaDqNp2lkfj47KdEhg5v9+mh0LDTh/H23PdUh26rquQLKHcErPlqtC5bc4Qa6p84qRhURE7IdE3yexWhTz8zzsPEk9nvCmBvj/atpzY3muN7b5psf7Fx9zlE61r37Tvc123Ogk1iYU53V+xudydDb+UQCIKAtd/ZLzRu3th0HiBfFSA0Nz0rUBBgRToVq8AZcuVUfeexiWTWfkHyUXe97tYbxasd0dirrNM5+yXwRJ9qYIe5Tfs3nu7GrY8BELAUkJfCeO6cl/WW+Kz0a6s4vAxE39VNINO0qoBpB9lva3b91OKS+kO0buZM1G0w+urHNNbXWYMiml8vwISimkHr0GwYg78XFfsK8DAtNy9qfgE1GgR0jYr8KNMZOzegOVYkrURb78EQoxPA2/xKQICvDFoN31+5cLx9LTOfrVfDXyTARQpU8lB3VwSsaXP63mwYeq2IcbhfxRWRGwqmfmv5wljar5hBj5NI9l4EyOcBafErVzMiM5Z3NKXd3g4Rn9v7ATGMR/yaBxSbINKWTkXv8i0mAxVFoJICln3ZSSESHSOaPw0iVxeVcGCMpFehj2VSsaMDk1KJiex3YnbC4Ci5z6/tg6pYnemKVfJvc4mkvB120DytX22t2ejreVgit6Q7o6eXO7MKC1i2ePVyOhUN2k3U5WIte7wkkn1fLdsLHZCA4C+iau+T3+kRUXPzgFVzBy831MvbDaPuXarWu1Ui/wlLR0Ngr5gKzVu42mlsGQCsfog8kO6MtdfOvIufaQW2evUD+llu89q5RkNbCaFnVeSa6q3puCJgVWCrV78q2njI9s49NXQjmuh5fvaU9m8c48Yb8u1nE2/vPUTUeLj432zlWsrVeWvg+pUL96LIXi5Kl8dXSsCyFwYYE8d9TlW/CWiDy9Pyzp1iEAZ6052xuHdB/PXcmsz+fMsFMEf4FNX+DvR/6VTsLT7FC0+Y+VoXT6/5tfh6DhluTadiZe+iqKSApcD6zQPWm/ruaFkRnmL7k6kkktndr5rxJwdGIQESIIEKEbCFK80p5KEpkabk0x2Sr1AigQ574Ky/N2wYP/XTKviRT4mqQk7KpKJ3+hQvdGFak9kOBU6tUOLlC1jztS6RyX4cKvf5NAf7JtHPdndG7/ApXujCJJLZWwB8zq/E3Raw4uenRxv9o49RyO0+zWEtxDwt3TnZr9+LPk2rOsL4LWDFz9fRkVf7JpkFnCRiXBMyistF5bfdXdFTQpb3HtP1UcCyxat/plOxA6uJn5tzsbfTDmyMvgJgLzf97taX4ofmpoFzlv9wWlm3QFZQwOJ21D00CgUsX36KGIQESCBYBIaEq1VbzkV4YnAw075q8dvsAxL57IbAjLbsf1kC+8wgfz54ACvEkHndC6K8lGA3NWlN5r4xtArL58NRh9MpW8CKz8u9VSxNQfFOf37w5EXVwjmZrsm/9Cde+KIM30pon4U1zo/sLcN6U8+C5hfc2kbY2pZ7r4o+5kfudgxbQM6kYva2aj4BJOCngDXl5JVj6xvq5grkWwBGBRDH7lKyL1LIphPRmZgvu9xFEaK5vCFV+zbSBqPxRz5tH+yXTZGZ3XdOWhNWXn7k3XLG6nGjBiLr/Yg1FEPkxnRn1P6cVPJTQQFrQzoVG19y4lU+kAJWlReY0yMBEthGQExA+wFZA+if053REyDCFahFNIjPW702ApLkmTIjFybRnu2EhTaIf4dvD2dVvoDl51lFqpsUemqmq+UHI1OtbYt4W/ZWkaGVfX4c6K6TI9FGt1a++ilgqepqA3I2D24P7s+LHwKWGWk6sd5aNUWt+iNVELYbwpZC5Rfp9Q+dgyXHmsGtZGmZJZK5BwD9ZGmjHY2yhb+/pVMx384HdZRdgIynzVs+JmI2/h3ATF/SCq+AZX83+Xs6FXurL5xCGIQCVgiLxpRJgASKJmCKIKuKdQBs4eq2dKr5pqJH09BeZyCtbdkPq4hf18MvEQNXdi+I2R9y+OyBQGuy74sKsS8b8PvQ2DIFLJUZ7es+aKn5W58K/BM1ZX5mUfSvPsULbZhEsu/LgJwHIObHJCZHog1uCFj7na2Ngxtzn1LAj5sAVSCnd6eit/rBiDFKI+C5gCV4CKb+BIZcG6ZVV/a5Olv6d5UZ2fy25R3T7BVYVfn4KGBtSPf/dlI1ioBeNMY+83IT86au9cL3zj71togZOW/poqaS41VoBdbmdCrGS/b20CQUsPz5CWIUEiABfwjYe8Y3KJCxw6liDSzrxsyiFp6lVCJ/+8NGwdQ5Cny3RBdOhhVENdnd1ezXGTZOcgukbSKZXbTllppTbKHRxwTLErBaT1jWpGPGtUHxbe9zlkGInpbujC30PlZ1REi0ZbsgmOvHbCJm415LF41bWW6s1vbegxTGb6BoKtdXEeMzluD8ns7YPUXY0qRCBDwXsCo0rzLDvqCG3luXX3/F0kV7by7TV2CHx5ProoKCfTPoRzxO0l4p87/pVOztHsepGvfNbb3jR4thX+z1b15PSgSrFbgm3Rn7TqmxKiBg2S9InutORd9Ras61MI4CVi1UmXMkgeokYAnwggoGX5+e5MWyHu/uarZXpfBxgYCf19Ir9H9UcFFPZ/PvXEi9Jly0JrNXKuRMQH1ZMTMMtTwBy8ezihR4Epb1xczClkdroiFcmGSiPfsVKOxzQ3wQg/SmdCp2VrnnYE1vz77bUDzpwvRHdKHQszOp5u+PaEiDihKggPUG/PbZTCsUde/LpCbmKloYH4LHk9nLZeiMSGnxNpwOWPnN03tuj2e9jVNd3qef0h8z6vNlHa5eLBEFrs+kYvaq4pKeCghYZX2+KmmSIRxEASuERWPKJBBqAooe2Nv6YJ9JVc6jm1E/elbmljE95Xjh2D0T8FXAUmtepqtlAWvijEDYPmD5eVYR1Do93dVi367HxwGBRHvuNqj6ciNZOhGNlHuAtI8CVgZiXsSbBx00U4VMKWC9Bv7vAuPuTY35a3tvmryhQuXwNWwimbsX0E/7EJRbvUqAPHPOmklmxPozgP1LGO5oSPgELH0qnWr26XIbRygDZUwBK1DlYDIkUP0EVM32fN66a9Xiqbz5LwTl9lHA6gb03HSq+b4QYAlUikO3xwGnQ9WHFTNDUy/rDaFfApYCyyB6Qaaz+SeBKlgIkkm09V0NkTMATPI63XIFrANnacP6iWsPh1qe/+4Q4LzuVOx6r5nQf/kEKGANvSjsFjU/ke5qWV4+0fB48EnAsrcPPpFOxd4bHjIByXTW3ZF408cOFrPwR68zUmDBQKN5Qanirc8vCK10Ilpf7gsdr5kGwT8FrCBUgTmQQA0RMCzroGULW56poSmHdqpDV4PX188WgQ9XxcuZ6cT3bsH8+VV1lbcfxZ/2yeVjIpMbF285i+MzfsQrR8CaOUdHFSJrPiNQz28EVMjZmVTTjeVuT/OJaaDCbN3iUej0YxVDuQJWYt7afaVQ6FCRD3kM0VLV8zJdzTd4HIfuXSBQ4wLWc6K417CM68s5wNqFMlTEhU8CVlkvcioCJkBBp5y8cnJDQ/0qH1J6WmBd2Z1q+WkpsXwXsFKxSCl51toYCli1VnHOlwQqSECAZ03DOq5nQcu/KpgGQxdJIHHqunfCKvwCQHORQ0o341av0tkBSCSz9oG1x5XlpPjBJX9wbz01+xa18CMAbyk+XGmWPKuoNG7bRvn1wV2l8LZM55T/LTXbxJy+dyIi9nYUr59/QI0vpLuaHvA6EP2XT6AWBSxRXa0iSw2JzF7WOemV8imGz0N8zur9JRKxX7q93+PsS/476HFeoXDfevraJs2bD0Lhx3a5a9Op2IWlgPHr7+DW3OT36VT0A6XkWWtjKGDVWsU5XxKoJAFT/zO9qPkvlUyBsYsn4NdWL4i8BMiF6c6m+4vPjpbbExjaRqg4DdCoD2RK/uDu31lF8pIacnFmQdO9PvCoyhCJZN9XgaFthB5vTdWn06nmg0uF6JuApbgw3RW7ttQ8Oc5fArUoYAF6tZXffF0tHyoeT/YtFshsAHUed1xBxfL6lkOPp1BZ94bWtyjMu33IIhQCVjoV8/M2aR+wexdCEsm+TYCM8i4EPZMACZAAYN8wZ5k4Yfmi5v8jj3AQ8E3AUlw4ue6VG57uODgfDjLBy3L6mRqTzbnbBTjCh+xCIGDhgnQiej3Pkii9G2bM691LTaNTfeipcj64U8AqvcbVPLImBSy1Tt88Su8o9byfauiHeFt2iQiOqYa5cA6uEaCA5RrKYDiS1mTfMwp5RzDSYRYkQALVSkAt45DMjEmP8QtleCrsl4DFrV7u9ISPH9wDL2DxsG13esqvrakhELByAC5Op2Jd7pClF68J1KSAZUOtcRHLx7+DXrcw/btHIPAClgD/7E7F3uzelKvbk72F0F4OfX51T5OzIwESqDABVUv/K7Ow+U8VzoPhHRCggOUAVgBMffzgTgErAPX2I4XAC1jznqqPF/Y5VETts/q8fH4kFr7SvTD2vJdB6Ns9AjUrYNkIRc8YHCjcXou3Pfv4d9C9ZqUnjwnozWZk8KLlHdM2Og3k1xlYqvqZTFczjzwoskCSaMt+FIIHi7SnGQmQAAk4JyDyqCXmPB7e7hxdJUf4JGD9C9BL0qnm+yo512qI3dqe+56qzgUwzuP5lCZgzVcjnul7v6jxsMf5LRXFJd1dMT/O1vB4KpV139qevUYV8wBM9DKTUldgJdp6p0GMqwHM8TI/hV6SSTVf42UM+naXQE0LWEMo9czBwcJttSZiUcBy9+eoGryp6u8U8uWertiTTufjl4BV7m28TucVdns5cNbfG9ZPmDoQ9okwfxIggeASEJX3dXdFHw9uhsxsRwJTTtaxoxpyx1vAAi/pKHDFQKN5bS2f2eEW39Z5ufeqqdcBKPlA7CJzKUnA2mdebmI+b7bBMLw+CPvbZqT+m8s7JvQVOR+a7YbA9LY1bzPE+j6A93oJqVQBa3rbqrcZiDwJkdFe5kcBy0u63vimgGWvxJIzBgcGa2olFgUsb36ewu1V1iqsb2RSzd90Og8KWE6J+WMvmK9GIp0z/QnHKCRAArVGQCAPF0zrDB7eHq7Kz2jvO8BS3A6Ip2IIzypyty8Sydy9gH7aXa87eStJwBq+3jwF4H2e5sfb4lzF68cXQs1rPHN7c4/TxGckV7/DQuQZp+Oc2lPAckqs8vYUsOzLc2CKGp8Zv37Sr55fIoOVr4q3GRw076n61YWZP4LIUd5GovewERDINd2p6CVO86aA5ZSYP/YUsPzhzCgkULME1LIOySxsebRmAYR04sM3ez0CYIyXU6CA5S7dIAtY009d83bDsuztg5PcnfUO3ihguYrXFwFL9NxMZ/P3nCbuk4ClqnJJpiv6Laf50b5yBChgvcb+j4OD+SNXLZ66unLV8CfyzFPXvN20hlaMvsefiIwSFgIUsMJSqeLypIBVHCdakQAJlEJA8FDE0LOXdjT/XynDOaZyBKa3Z99tKByfF+A0YwpYTont2T7IAtawKPpnd2e8C28UsFxF7IeABZUH013Rw5wm7pOAtQ6iX0x3Nt/sND/aV44ABazX2Yvi/ELdQEcph1hXroLOI8fbe+eLGmcCaHY+miOqmUDABax0OhGdyVvai+9ACljFs6IlCZCAQwIi+Gh3Z/Qh+0och0NpXmECFLAqXIASw1PAss8uxoXprpjX52yVWKHwDfNFwAKWp1Ox6U7p+CRg/VEMvax7QfNDTvOjfeUIUMDaif0FEbP/5qWL9t5cuap4GznRlu2C4CQA9d5GovewEQiygKXA9ZlU9Hx+Vyq+qyhgFc+KliRAAo4I6AsKnJRJNXu/4sJRXjQuhgAFrGIoBc+GAhYFLLe70icBy0qnYhGnufsjYOlNRkS/uqyjZYXT/GhfOQIUsHbBXnFh49jcjS/esH9VXt4VT/YtFsjxABz/LqlcpzKyHwSCLGAZkE8sS0V/7geHaolBAataKsl5kEDgCOhlZmTwluUd03gTWOBqM3JCFLBGZhRECwpYFLDc7staF7AE+qXuVPPX3eZKf94SoIC1O77WxeP7m79XjYe6J9qzd0Ix275/0dvuovewEQiygCUW3tK9MPZ82JhWMt8hAas1nXtZgRmVTISxSYAEqopAXlSP6O7ilouwVpUCVjgrRwGLApbbnUsBiwKW2z3lhz8KWLunbN+qOSUSu+7pDsn7UQu/YiSS2bsAHOdXPMYJD4EgC1iKulgmNTEXHpqVz1QAlUR79otQubry6TADEiCBKiHwI0XdlzOpiS9WyXxqbhoUsMJZcgpYFLDc7lwKWBSw3O4pP/xRwBqJsp6Z7o/diiVijmQZln+ngBWWSvmfZ5AFrMmRaEO1icleV3hoieX09kzc0NFpr4PRPwmQQA0QUKgKjsikYr+qgdlW7RQpYIWztBSwKGC53bkUsChgud1TfvijgDUi5TWIRN6Z7pj00oiWITFIJLM/HF6BxS2EIamZX2lSwPKLtD9xhn7AD5qn9avN3KA/IRmFBEigygn8//bOPDCuquz/3+fcLKXQtJlJWmhm0gBlKyggi8hPEXwFXzdAsSzyCmkmrWwFFBBe1gDKvsgiSJtJK4giVUABcUNWUVAUQeBVSpeZSWibmUn3Nsnc+/x6Jgtpmjaz3HvnzuQ5/0HPeZbPOZm5873nPGeRpawr2+fX/qfE8yzp9ETAKs7pFQFLBCy7V+5YF7AAfJerfDfE7qRNdrMVe84R8KiApevcvMREXYr50wx8wjkCGVgmhKNrnv0mFp1cEruwAqHkQwScBrAUcc9g+sdSFxGwSmu2RcAqrfmUbIRAgQkQk8Lxkfm+pwociLjPk4AIWHkCLNBwEbBEwLJ76YmAhUWkcG1kvv9tu9mKPecIeFDA+hMBd1koe1bXuwk2JY4jXYm4wCIWM1pibb7rAGLnZsMdy8FQYgGA/9kiOpe541G8FAmBJWC+PtpWszDbeOubkz9m5tOzHZdNfzlCmA2tvr4iYGXPTEYIASGwfQKPmGy1dLTV/lsgFTcBEbCKc/7cELCYeVWsrWZKtoSCjfHDYNBr2Y7Luj/jomib/46sx8mAEQm4IWDluqamhVYdbMH4u7NTx+8R6IpI2L/IWT9i3U4CHhKw3gPwR2L++fCLbeqbE8eCcW2hRSwiXBtp9bfYyb8QtupD8ZsZNAfApEL4F5/eJMDgHxPzpdG22o5sIxQBK1ti7vQXAcsdzuJFCIwRAvyVaLjmiTGSbEmnGQjFDyfgRYAqnUyUgAsjYf9dTvoYS7ZdELCYmZ+ItdV8NVuu0+as/piVMl8GYadsx2bVXwSsrHCN1tkNAQuEP0Rb/ceOFsvwf3dFwCJsYvBlsdaau7ONT/oXjoAXBCwC/syguw0z9fyyhZNXjERD78QC4VoARxSOVnpHw3WRsP+aQsaQr++poc4vG1DfBfDRfG3J+JIicEc07L8ol4xEwMqFmvNj+orczWQjWJX8NYDjnHcpHoSAEChFAkT0sEnmdVL7qjRmt2F210GmZT0NYKqTGYmAZS9dxwUsfUmDwuxYqz+cbeT1sxIzoLCIgRnZjs2qvwhYWeEarbMbAhaBL4uEa24eLZaCCFjpU6l8aSxcc0u28Un/whEosIC1FES/JfBjkVb/73dMgSnQFP86kboCwH6FIwZ9hPB70bD/qgLGkJfrQGiND0jpOlhfyMuQDC4lAn8i8DWRcM2zuSQlAlYu1Jwf039LA1OwufOTYONF512KByEgBEqRgGVhZvsC/89LMbexmFOwqXMqiK4A6Bwn82fQZVVrq+98ZxHJRSJ5gq5vWr0HUyoM0NF5mtrRcKsMao+l4erl2fpoaFy/q6l6rgTxudmOzao/42pet/G22KKgFN3OCty2nafOSgQNBS1WZr07KhvXDHOvWHjy4mzG6L6u7MASASvbafFE/wIKWK+CcCf38MuxB2vaM4FRd0bMryrGXw/mWQDGZTLGoT4WQDdHw77LHbLvuFk3BHfHkxAHNhGgBMO6NZbDy5GBAETAsmkqbDYzeM1oYGZ0J6oav9Fm+2JOCAiBsUCA6EFOpb4bWzhZ13qQVgoEjn6uLLDH/scSGXp3rmONGa9AWVfEWmufd8zJGDEcbE5eQZZ1PhNNdjBlKxr253TD04yZXLGuavUXAOtxB+PTpl9mUlfFWqtlTeUJOtCcvISYvwVgtzxN7XB4NOzP6dr7QOOqvWConxHoYCfjkx1YTtJ1xnYBBKwogF+PVOsqkwz76k7yjQ6/gMggFOohUqdHWicV5QtJEbAymOIx0oWBp5XCpflcwCECljcXiwhY3pwXiUoIFBEBYmI+NdLmf7SIgpZQMyBQ35T8JBO/lEHX3LuwPrbAc6NtNT/I3YiM1ARcenDPWcDSMbpxOcCWgtu9zNa3ZE3l/3cRDCUeAXBK/pZ2bCFXAWuPOcmJvSbPBnCrozEyXxFd578Zi8h01I8Yt42AywLW64B1m2kYr3TM80VyTaKuqfMYUuq7xDgyVxs2jNNHCf8eNXyfwDzqtcGeqyZc+h50NSdxliUB/VxJ+kWWdXW+L0dFwMqSvUvdRcByCbS4EQIlS4CxgMm8IZfjHyXLpEQSc0XA6jueMzcWrrm3RLAVLA2XHtw9L2DpCZDaavYsQ68LWGhhFWhf/SmyLEd32+li3ABflWsdFXtmQ6xkQ8AdAYtXAvQ0ER4ZvdZVZtEHmjuPVqxuKOzNhNTL4PtiYf+FmUXtnV4ufQ96J2GJZGsCjLeg+GeAejHa6sv7BawIWN5cYIMC1vS5XNm9MfkygEO9GapEJQSEgAcJMIP+Jxb2/cSDsUlIeRIQAStPgG4Ob2EVjCYWAZT17YBZhikCVpbAirW7fi7s2Zh8mIGTnM4h1x1YOq5gY/wwGPSawzFaRLgo0ur/vsN+xLxNBJwWsAj0Bphv5LLU69F5U963Key0mcCszk8rpW4srIgFXZfyB9Gw/9t25ua0LRGwnCbsWftrGfgDWZi3iaxX4m216+yIVAQsOyjab+PDmgP6LVY0eRwBz9jvRiwKASFQigQIaAUbN0baJi0pxfzGek5uCVh6d4NF1uX5bvUey/MVbI6fzUyXEjDNYQ5FIWABeIkt66rYgtoXHOZRsuaDoeQ5DHyHwE6vKRSBgKW3il4UbfPfUbITXmKJOS1gAfRENOz7ilPYgqFVRwGGvpnzCKd8jG6Xu0F0f7TVr+vgFUULhjofAdRMAKooApYgcyWgBdZ3QfQ0mN+HZW1iw3o71jrlzVwNjjROBCw7adpna6uimbXnrNplXLdhi2JpX4hiSQgIAY8S6GHQLNl95dHZsSGs/npF+grwXWwwt2MTbJ0dbav9oeN+StSBW0e9AHoyGvYdnyvG+ubOQ5iVXlPVudrIcJwJornRVt/9GfaXbsMIuPHg3ueSX4uGaz6e6wS4tANLC1gLUGZ8Lzpvkq27bXLNW8btmECxC1g6u7rm+GcU42aACnk6ZjMDDxTLccJAU/LzBL4ZhI84/DdiEjjksA8xvx0CFnOKFX1gmpVvrVgwodMpUG58D042fBWvF2G9OaeYZ2JXBKxMKEkfISAERiDA96dg3PxBuHq54ClNAnVnrPWrst5zQLjO8QxFwMoLsVsCllWmDmp/oPqfuQY7dU5HTZlZOZeBq3O1kek4qa2WKakR+s181AhO+K+HQDgtDyuZDSU6Kp9aJX2iKL0M0LjMHObc6wNmuiTW5ns4Zwsy0DUCpSBgYeajRmDiZ84lqIvAXO8avOGOCJvYwvxYm/+CgsWQoePpc9+r7N7oXwTwlzMckmu33mjYX5HrYBlXHAREwPLmPImA5c15kaiEgNcJ/IsI37araKnXkx3L8elaHKSUowWS+/n+jcCXSZHk7FdboCk+l4guBuD4D5x8jnr1ZcZU1xQ/WpH6Y/aZZjuCXyfGZZG2mj9kO3Ks9w+E4ucR6BJX1lTQZ6CFrFyZa1HUMCv1D+src7WR6Ti5HCBTUoXvVxIClq7x1tQ5lUnNJ8bnQfp+ioK19QS+JxKuubxgEWToOBhKPg7wiRl2z7WbBcaD0Tb/rFwNyDjvExABy5tztNUH4SFzuHyVmTwPgJzx9+Z8SVRCwBMECLgOFcb3I/dP6vJEQBKEYwRcFLDAbM2JtdXOdyyZEjXsxgPWALr8BSzArdpqabUMdHYk7HugRKfesbSCzckfgfkMxxwMMRzNU8ACMwVnd30SzC86Hy+9CKSuioYnu+DL+WxK2UOpCFh6jgKh+OEEuhtAzkdtbZhrJmC5yerE9rbcd+HaEMeoJlwSsHQcG6Nh/86jBiQdipaAG89XcoQw++Wxa3c3BgAAIABJREFUjZLf0Lh+V9Po/iB7UzJCCAiBsUCAgfmKjZukcPtYmO2+25Bc2oGl9YYbe63eO1cs2M2xegalNmvBpq7jQdb1AD7qRm5FJmDpukXfB6xbo221HW7wKQUfwdmJz8Hi722pd3aIG/nkLWClawUljlCMPzsfL3UT8fmRVv88532Jh3wIlJKAlRaxZsU/TgbdA8Zh+XDJbyx1M/ipWKtvJog4P1vOje4/Uv81AIZzXtKWN29ia7JdN945HKuYz4GACFg5QHNhyDYC1h5zkhN7TV7tgm9xIQSEQDESID4n2ur/IeDdh5dixOrVmINzVu9JqdTNTHSSCzEuI1jnR8K1T7rgqyRcBEPJewBuBuB0/R/9J39etLXmB/mCCzSu2guG8X0CvpCvrQzGx5j4glhrzWMZ9JUu+shSKKF34X8TwHingTDUhbHwpLvz/T5xT8ACQNb3lcIty+fVystepxdIHvZLTcDSKPovLLgPQCGLum9gxsOxNr/+jPBkq5vddZCyLH0pjNM71iyAn4qGa07wJAgJKm8CImDljdARAyJgOYJVjAqBUiVA95kW39SxwB8t1Qwlr60J6IKoPRt8JzDhZ26wIVIXqNSkecsW0mY3/BWzj/QbeUW3AviUG3lUbsbExQ/71+brq6Fx6TizrOoEMB7J11Ym4wl0aXdPzw9WPrTrhkz6j+U+DbNXHWSZ6nYm+owbHBgb/bFwMJmvr11nrastN3ovBLMb9XliBPPbkfDkRfnGLeOdI1CKApamlb60AMY8MH/MOXqjWt4A0I+jYd9Zo/YsUIdgKPkrFwq56+zWR9f6JmERmQVKVdw6SEAELAfh5mF622KALVxWH1tzIrMpX8x5gJWhQqAkCRCdF2315b0DoyTZlHBSfVd507MupfgeA+fHwv7fuOSvaN3Uh+L6evWzGZjgRhJ2HPUaiNPdo6lYokDnLw/7nnaDUzH7CIYS+jjqXAAT3cjDttofLazqo4ljGORWwf47lGHdJruw3FglufkoVQFL05gW6jrYBIcJfHBudGwZtYGJHo61+jy5E8tFAcsE6Olo2Ce7sGxZVt4yIgKWt+ZjIJoRb7Pov9FFapB4c84kKiFQIAJ0L/daN8UerGkvUADitkAEgqFVRwHGrwG4UqyUGLdSmXWn/Djc/oQHZyVOgcJVAPZ3Y1kw6B+xYPWh+dwWNzTO/kLuv3fl6KM+9UV0T8rkW2X36PZXS6A5/lViusatemoAvx8N+vdFC6XsWMMuXg6gw+1gxvmxNv8v7IhdbNhPoJQFLE2rrqnzGEVKv1Dcz356GVtcz0Q/8aKIFZjd9RWY1g1E2DfjbHLtyFhrlvl265hHG3M1IeO8SUAELG/Oy4gCVt0Za/2qvDfuzZAlKiEgBApAIAIyvxNtnezKMbIC5Ccud0BA10ZMWdaZzHSXS6A+IFjflFpYOxAbmhJ3EdFZAFe4MScm1Mc6wtX/sMvX9NMTVZvH8RkEuscumzuyw8yrAJwVa6t53A1/xeijr/YVnbPlMoVKN+K3CJ9ob/W9mm/9q4FYG87qajB7rRsBnOpG/Mx4RYEujbT5XnbDn/jIjkCpC1iYw+UBM3krAWcCmJQdHVt7ryfgp5Gwf46tVvM0Vjtz1S7jqgxd+/DYPE1lMjwFxrPRNv9/Z9JZ+hQPARGwvDlXIwpYtees2mVcd3kbYM30ZtgSlRAQAm4SINDNFoxbYuGJedcqcTNu8WUfgWBT4jgQfmufxVEtvUfM50Taatw6EjRqQF7pEAjFvwOmi4gw2a2YbDvqNSRgl4+m6n1Yi2HxedEFfjfXsVtTlJefYFPnRSB1CYApeRnKYjCv3Tg+tii4KYshO+x6yBwuX2UmvgiQOyIlo4eImyPhmofsykHs2Eeg5AWsvts3A4r5CbduDN3+7HAHg66Jhf2t9s1g/pbqQ4mn2Z3LQvT3Sw9g/SQarpmVf+RiwSsERMDyykxsHceIAhZaWNVFVn9EkfWGN8OWqISAEHCLgD56o1KpG5YtnLzCLZ/ix3sEAs2dRxMr/cPQtTe9DDo9Fqx+xK5ja96jmn1E6WLV1HMXCKdlPzrnES9F33/zM3j+GFuOeg1EUR9K/j8G/wqAL+fIshxIzGdG2vw/1lfJZTm0ZLtPOWvF5PJU2R3EdLqLSb5dOd53yOJ7qNtOny7XVtOhL7VgzW0P10p9NTsn0gZbY0HA0pimNcf3s5geBXCADdhyNZFi5hc3dtNXkjZc9JFrEMPHBUNdRwGW3uX7Ubtsbt+Ovpmb26Nhf9B5X+LBLQIiYLlFOjs/IwtY+hXcN1ZMrqgoX5mdOektBIRAqRFg8KWxcM0tpZaX5JMdgdpzeJdxPYlvgElf4e1WW0bMs2UX1oe4g6H4lQBd5KaQSBb2jyzwvWvXUa+BbKZ8g3cuL09+nQjz3FpQDCwnxpxom/93bvn0up9gU/xyEF0MoNqtWNNHUlsnvQHSP/rsa2mBV/WcD+BK+6zu2BIzP8WWdVX7wsny0tct6Bn4GSsClkYxtalzH4OUrsfmSk3E7eDfCKafR9uqG+3+rshgukfsMmMmV6ytSvyaQP+Vq40sx6VAeDbaKkcJs+Tm2e4iYHlzarYrYKXrYJX1/g2EBm+GLlEJASHgNAEG7kpZPd9bsWA3udTBadhFYD/QlPw8Eeti7q41LTgwcVN7a80fXXPqUUeBUPxSAuljXn43Q7T7qNfQ2AtwNFW7jxChOdLq10Xkx3QLhjovBtSlAGrcBLG50pzQed/k9bb7bGEViCaPI+AZ221v3+BGAhojYb/c3u0i9NFcjSUBS7MIhFZNJxh6R2shi7pvAPOj0baaptHmx61/DzYlfgPC59zyB6AXwHPRsN9Nny6mN7ZciYDlzfneroCFmWzUTUgergiveDN0iUoICAGHCbzNzFdJ0WOHKReReV14u2cn1chsuVXMvY8O4VHTsq7uaKv9dxHhsjXU+ub4+cx0GYDdbDU8ijEm65jY/JoX7N4pM+C279KYnrMBut7NvMB4nBhXRhb433HVr4ecBZvj54JxBUCurimD1DHLApNedOpocGB216eJzd+CyZVi9P2fUe1s0exYm89N4cxDq8l7oYw1AUvPQH3Tyj2YyvQa3LuAM7IRjJ9F2/yeELF2C3VMK0PlIwCOcIuJvjREKf5CpLX2dbd8ih9nCIiA5QzXfK1uX8ACEGzqnApS7fk6kfFCQAgUHwEG39zbk7p+5UO7bii+6CVipwgEmzqPB6lfOmV/O3Y3MvE3Yov9v8LzZGsdJpfzyMnd1FDXwQrW9dRXjHaH39s5OdjBoMrNmLjY0ZomTPWh+JcYSu8ccLNtJMasSNnSxzHvUP3GfEy1YCh5AGBdD9AJbq8p2mT4Ij+Z1OUU8MC3eCdas/oUkLXAKR/bsfsBA02xsP83LvsVdyMQGIsClsaw61kfNJT3Vugj0nsVcGFsBPBINOwPFTCGQdeBUOIPBLh1jFD7NQH8NdrqO9Kplz9e4DoWYhABy5uzvMMH4f5isc9vefs9w5vhS1RCQAg4QUAfHVQVxrWR+537keFE3GLTeQLTZnV+zFLqTgBHOe/tQw/6jSaUcUqstfp5N/0W2tfUOTy+zExczYzzQbSTq/EQ3TBhTfW17yzStys51/SaMpW6l4BPOOdlW8vpt+SEr0fCNc+66bfQvqZ8Y8XOFZUVl4P5QgDjXY7nEa7yNcXuJNtuHxwp/gIdTdWhrCDCGXI81eVVNYK7sSpgaRT1s5JfYsW6tqCruyuHTYNnRKz+DRn6EprDXVyZKSa8GGv1uymcuZje2HAlApY353nHb3JbWE1bHj/IUkq2QHpz/iQqIeAAAeoBW9dG22pucMC4mCxyAvqq+pVW4hRicv3qeGasIjJnRsOTXyxyjBmG36KCTeddRkSXMTAhw0G2deNeDsQerHF8F/aMmW9XrJ0weSaR+rFtwWdoSK8phnVqe1vtcxkOKe5uM9mor+q6mMGXA6hyPRnDmB6dN3GJ00WeGxqXjrOMCacwaKHbORKwEuDTx5owOnVWe1DRuItB0Lv6tm6MTaT4smhrjWu7d8eygDX98+9V9kz1P8PAJwEud/tvYNAfYT2YHoqGfecULIZ+x8Hm5PNg/rTLcaS2FJB/KRL2fcZlv55wF/jmmr0o1fsMg8p0QMRgAi+2aNMpsXAw6YkgRwlCBCxvztKoRxGmzkoEDYWIN8OXqISAELCdAOP7m2BdHW+rXWe7bTFYEgSCzclPEfN8BvYpQEJxYvpKpM33cgF8u+dyzt/Kg6mGSwolXgH0iGlsDnXMm6rfojveps1aeaSlyh4o0FXwCbask2ILal9wPNFCOpjD5fWprotAfHkhBFECPVexmU909kjqh4ALcenEkOlNWMQnj4XLJ+qbEheywsVgLgNIC+0j7epjgLpAvIktXNvb2/sTp8sTjGUBS6/DqXM6aoxU5V89cBnXq2DrvGhb7d8K+fEXOCNeR+X0BIBDXY5jzIlYwVByMYjHscXlRFQ77Ji6PrIfB8ECaGW01XeIy/ORlTsRsLLC5VrnUQWsPeYkJ/amuAUEvdVcmhAQAiVMgBl3d48zr3DkdqgS5jbWUtO7sDrNxNcLsbuhn3WXxfhie5v/z6XIvqGxa5JZxpeA+QIAOxcixzKohqXhav3yit3wn97Zl+o6mYhd34U1sKZA5gnR1skvuZGv2z7Sa8qwLgL4WwAVZE0xyvaKhaved3r31QDb6XPfq+zZWH0ygx50m3e/v9VM1ldirbUleey5blb8M0rhUoCOBLBLpowJWAfCJphWKLKg9qlMx2Xbb6wLWIMillmpT9HUZ8vPvv7UC+afR+t9/+PUxQ2ZxcoUDHW9CPAnM+tva68xIWIFQ4n/9O/snZxhbUULwEoG/V/Mo7vURMDK7e+g/7TGl8F0MQF79FnhKCncXbGRfpnvi6xRBSyAaWpjYh/DoHdzS0FGCQEhUCQE9NuQG6Nh35VFEq+EWUACDY3xfU1F14BwaoHCWMPETWWpdb9etnD3zQWKwXa3wabVxwHW5VB8OBju1rwayIZxceXOvnsX30Pdtie4A4OB5uRHiXETwJ930+8QX2tIYY61euOTsUVBR2s0uZlfXVPnMYrU/4LwyYKtKaIfbq5IXeL2y5H6UOeXC3BBwNDpXQOYx5fasedgc/xsWHQTKL3bKn08KNumhSyLzFNjrZN/ne3YTPqLgNVHqf7s1dXca74FRl0m3Bzq0wPwT6LhmlkO2c/IbHpThsl/KMAuLB2fvoDmFdPo/rxbO5szgmJTp2AooW+J1hcHZKAtbOPUBOHv0Va/mzXKMspcBKyMMPV91oTi/6svMgFoEhhEhAru25Fr9FkhE2D9bKWfLdMvRxWsxvLxq/+w+J69snrezGiRNTR2NZiGtTTzFKSnEBACxUZAF24vM9deVkpiQLHNQVHF28IqEOk6rYA7ZjQufbxtBZt0Ymyh762i4jdCsPWhxAUMfA/AuA+/8N3Pyq3aV9tkNvNRI1B1zCkE9bD7WQ961GtqOZu9p8QW7lr0ayrYFD8XRDcBaTG0/yHSfbqKjD2Wt05y/Tmyb2df/ORC1FcbQnk9gf47Evb9yX3y9nsMNnWeBaXusEkM3cDA15y4uVEErA/nfvrpiarucdACw672r4iMLeqjYw8V+mbCYCihd24fkXHU9nbUtxN+wEw/jbX5vmOv6cJYqzsj5lfl414FSO+yyUhX2E6kFgive03EEgFr9HUVbE7eC+bT+59dK7NcB/qm+xRA9xkm3bJsYfXq0T1mvNCYAs1dHyHmf2ZiVPoIASFQXASI6J5d1lRf7PRtY8VFRaIdlcDRXBbcM3kGgPCofZ3roN/ibLKU+f/a509+wzk3zloONMXnEtFtACqc9bRj64ZRvt+yeRP+7dYxr+HRzJjJFWsnJr9BjNaCcWD9ZpA3k+JPRVpri/YSm2Aorgsn37FlZ61+oCxYM03er2Ohv2BrKtDcdTSx1QZg94JB0EfmmP5msjm7o61WCwnF12ayEazq+iZg2bumWL+RpxOjbf7f2QlFBKytaaZvH62oWAqwrklUqKZ3IT1YSBErMDO6E1WN10fFC1R7ifT3i+bwfDTsP65QE2GH32Ao/jswPg5K177LR7waCEcLfH+Jhv2FOOY5IhIRsLa/UupD8TOZ6CIw9gWQ72URWuDuSUHt/0G4evlo6zPjxRYIrZpOMN4bzaD8uxAQAkVHYDPAt0fDNXJ0sOimrvABB5uTp4FZ75jJ+PvEoah7QOqsnu7uR50uDmxn/P1HnPSNn/oBIKejOHbGA7bqom21HbbazNJYsDlxypYHokeyHOZE9x5SOG9TuflTt4++5ZNMcHbic2C+AUwfseGhMp9Q0mNNC/UdC/zRvA3laqClRQWj554MqJ/masKecaTrvfQSmf+v2ITRYCjRBOAHABlO3GrHZH7R7qOEImBtu2r17ZymUaVvlvXZs6ZzsqKPiy2Mtvqbcxptw6BAKPEHAo4u5K5UABYz/lJm9Zy+bOFuy2xIy1UTgabEu0TYO30KzN72djTsP8Bek7lbEwFrZHbBUEK/yDgP0Jd3bPP8r3cZhsqsNSPe7mztVL0Tesw/MnDQtta5G6S+xWs2LNxRKYeMf3AEQlEfaPw1xDg/92UgI4WAEPAaAb37KrKm+ltYpM8mSxMCWRJoYRVcnjwTCnqHQ6GbCZBlKfOA9vm1upiohxtTfahrDhP01mt9tCvj72Onkuo75jVxWaF2Xw3m1cKqPpo4vYDFt4ciTq8psvigyAL/O06xt8cuU6Ap2UyK7vPKmmLT3Du2sHZxwdfUTDYCu3SdRoofsod1XlZSYIpYRtnn2+dXeftzSn++R1c3AtY8h3/sp4jwhUir//d5kR0yWASskUnWhRLfUoB+aaKPqheqWQS0RcL+2QUJ4OjnygJ7HvgagQ8uiP8Pneod5CYBv4uE/V8scCwZuQ+GkucQW9fwtrcLZjQ+g066etI/vHI7oQhY285YMJS4HUhf7reVeMmEa8tRef/SwM4JLdDu8NKGFi47pAO0ykzq20k/urUXMkH0q3LFs5bM860Zac1k9cA8tWntPgb1/l8Gi0+6CAEhUAwEiH4Qba2eW/AfF8XASmLcLoFAaI1PUep8ZlzjEUx9xSHJ2LMQdXdGYxCclZgFNXjsMqvv4dFs5/rvzOqrVesmPe2VY8T1Tav3YNV7OViFcs3J5nHpNcUw946FJy+22Xbe5uqb4mcw0cJ+Q55YUwrWJRsr+Yde2b1W35Q4mYl+CrDdOwZynT8m5kZron9R7E7y3KUBgVDn1wlq4FZQ59cU43N2HiMUAWv7yzLYlGgHYbcCvzjpIFK3Rlqrv5/rH1B+4/SthElddmDYj+f8rOYxmgF6Mhr2nZCHDeeGpsXs5JsA9nfOyaDlN6Nh/4Eu+BnVhQhYWyMKNiVuA+Gi4eAI3BgJ1/xoVKDbdGCaMRPl66qSuuao3tE32JhxLdZtvHmknVhZfSEFGtfsRUZK/7HrivLShIAQKGYCrP6qwNcsb/M9U8xpSOzeIBBsijeCSNfC8sqPw0Ew6SNM630dhdtlyISZUIGJidOIyQs7QIYvGlORsZfXxL76UPwbjLQo47k1ZZhq92UbJkULvaaCu8RPhlI/8canwFZRmAxzX6+JfcFZnadBpUUZT60pBp3e29Pzy5V7Ttm0w7fWjk503+dU/YTkSUz4maOuRjBOpnV8ZMNzv8aik23ZDS4C1o5nMBhK6GLJE92e52H+HjGN7rkd86bGCxFHMJT4C4DDvPZ5QMAvImt9p2D/LfUYW9JHjwvTWljhbVCgquuv7u5Wo6WK+fTlbX5dcL+gTQSsD/HXNyVuYcIlQyeEgDUM66xouDbvsg/1ocT/MbDPUPs9Pb1TVj6066rhiyArAUsPrp+d2J8t/Kugq0mcCwEhkC8BfSzm/mjYNzdfQzJeCAwQ6K+T8oAnajmNMC1czoFx5f44sBjZXtmb9Sy3sJqeWFy+ZsXE8spdjFNJYX7WNtwZ0AMjNSM6b8r77rjLzkv/ziItjBa+PtgIoZsGTRtfWb3SzTW1bvWEssryspOYKIe3ndnxz7F3j6Wsj3j1GG+/MKrZZf0MnCOPLIbRu1xuHTuuvCu+2D+91/Efry0tasbb15T17AravGn1F4mtX2QRrK1dCVjHUF+KhqtftMOwCFijUwyGEl0AJo3e07keBLRG3lh6Dl4/VBdxdr0FQsm/E1jX4vHe5wHjUV63sXHcrputxW9NN/E86eLvjjZ9c+uaysXK3FizawrWLwEUZCcUg/4RC/s+5miyGRgXAasP0pSmlXtUqPLvgvm0QWyMHoC/GW2rSe/+Hlg7GWDF4num94x0+icYSuhLTvYa+vdoGt21w0XurP9YpzXH97OY/l7gs9OZsJE+QkAIjEwgBaIHoq2+8wSQELCbQH0o+U1mvh/kwYfBIclaveU1PG59+tjOpK7dUvkfnWNqaFxW2VNRmd7ZYZgVxwH0uN18bbZnWsqa4VWhIZ2rPrbQ3jUHFt/nyR8YH05Ib09Pb8DYyVpv25pipoZZA2tqNxip1Z8FpX9QeLlZZOEjXq4XFmxKHEfgu7ccJ9zqTa/XoLKpTtqsUr+vKOtN70jqmLebvq0vfZQ1r3b0c2VT994nfdupYZUdAi5bCPAeedm0aTCBPxsJ1zxrhzkRsDKj6I2dWPTAhLXV5+f/PZxZzsN7BZsSb4KgC4dn/bs4N485jGIsMMu608/t4yt3Mxf7YYvArUWHlV2xMqvaoPEbKsu6x+FJAEflEKGtQ0TAshVnfsZmslE/IXnjsN1XPQycGwv7B2+MzkbsY+Dzm9n6U7y+ZsPQFzV9G6X42S2bLKYMBE3Ef7TWbPrS0KOEOf2hBpqTHyXmf+ZHQ0YLASFQAAIMQlshb38pQM7i0kUC9aHkl5n5dlD6DUqxtIWVm3FBPsFuHle2LyH1AwCH5mPH3bH0hGFWnL1s4S4r3PWbnbdAU/wrBLoLhGB2IwvXm5gerOjm3He4+oDuHmtvmMY9YD6icJlk7flVw1SnLltY7elbtQLN8f8hJr0rspCFrLOCq6hiRvmmHn2D3FYtCaCq3NczfsM76aNGa1FldKPSmFhhbHNMMlVujjfLy06Exfdn5dylziJguQR6mBsv7MTSpwIMc823ly3cfbPbFALNKz9KXPYUUCzfMfy8xcZ1O3Vbrw9ntbrSYi16j6/cYFas6OGeXWfQutUom2Al9WUx27TuCr4MinQx/Rq3ue/InwhY3pmNvqP31ALQYI0qBs+NhWvuHRplNgLWwDiLcWR7ve/VoSJWMJTQF+bom7kHdSqqMHyR+yfpHaPplpOA1X+M8E8eODvtndmVSIRAURDgDii6PTrff0dRhCtBFiWBQFMiRIS7pV6ip6dvjWnyER0La4riYpb+wvf6YUlqcHp3Wa0lhSMj8/1vezfEDyPrP56qd/btXAzxbj9G6gGsH1vgfxGonIj0caiDwNiv2PISAatwMxYMJbQWWl24CNI/S+8zjc2XdMybutHtOALNyT8T63pY6VuBi7cRPgDjDYDfsMCdilQdAV9kTtcWyul3fyFgiIBVCOoj+ww2J67bcoPNVUP+dSMDFwzdfaX/bbiA1XcsfMtOwa1b1fCSEKRwwPDnhmAooV/WTB0YSoouj9RV34qWvmO0OS/kaaFVB1sw9FFCaUJACBQHgc0AtUrdq+KYrGKPMtDUOZtIaaF0l2LPpQTjT5KFT3n5mNdIzPtrrN0la8qTK7KLiY6Otfr0LVVF0+pDXWcyLC2MyudUwWeNLIvUse2tk/5oRyhyhDA7itNPT1R1j6NVAFdmN9Lu3nRvT0/1ZSsfog12Wx7NXjCU+CsAXXfJU5c8jBZ3Kf67CFjemNWpczrGG2bl9Vs29357UEwCLoyE/fpZbKu2rYBlHR8J1+ojqYMtGEr+CuD/BlA+8D+Z6MDhzw7BUPw9gPYcqlXx2o3jB44R5ixgBUPJAwB+zmtbDr0x3RKFEPAcAS1etUXDvnM9F5kEVLIE6kOd3wTUrQxMKNkkiy+xOJv0mdhCn76yuOhaIJRoJuB2fWqq6IIv3YDjljKPbZ8/Wd9SXVStoXHpONOoOhugGwv/w72o0DkQLC1hWKfFwjWv2WFcBKxsKTIFm5MLwDgz25E29+8F063RsiUtmOd+YfdgKPG39A5GoLh3Ytk8KS6bYzD+Fm3zH+6y323c5XIsLtuYJxu+itfnUUEuMRgt1vrm+GXMdM3Q4/aUh4Cl/QVDCX275IelEVidMGHdpN8MrYE30ktwWwSsdACN8cNgkC1fNKMBlH8XAkIgVwLcTaCHImG/PuMuTQi4SiDYHD8brH8cFvy6blfz9qizlRanPtfeNqWoa1jWz0rMYUW3AFzoK+A9Os3uhcWMVQZbn1++oLZod+Q3NK46yDQMfTziRNl54d7a2cYT43PRNv/v7IpABKwcSB7NZfV7JhczMC2H0XYO+b1FuLq91f8XO41makt2YmVKyrF+a5l4Yay1Jq/apHZEN9YFrEBT4hoitHzIkruh1IXR+b4fDuebyQ6sEQUs8Fcqx3c9M/x28EBTYiURJg/46bUqJq9YMKFT/3fOO7D04P5i7s8MPaNox2IRG0JACNhIgPgFMirPiTwwQRfFkyYEXCcQbE6eDeYbCn1dt+uJe8vhBwrmF5eHJ//DW2FlH01gZnQnVO08l8BadJCjX9kjtGvECrD15Whbrd6xUNStLpSYqYCbATTk+2xc1CAKGbwIWIWkP+h7+tz3Kjdv9P2bCi5i0X1Wb9nV7Q9WJQoBRkSsQlAf9PlmNOw/sKAR9DsXAWtrAYuBX5Piluj8Gn3cdqs2qoDV0qKmdVwyxTS7nybwwf2D1xsGH7Zs3rb1WIcLWGDzhui656/GopPNvAQs7biuOXGEYrwiX/he+DOTGITANgTWAiocDVcPnl3DlMoXAAAgAElEQVQWRkLAdQItXBaMJM8H0VUAT3Ld/1h3yNxOik+ItNZuc2NRsaLZPdQxzeSKi5ioqfiLcBflLHQQ6ORIsPrPQ28PKspMBn6oNMXPYC1iEe1azHkUY+wMRBVSp0XCU/QFUbY02YGVO8a+ujfj3gRY16ApWCOieyw2WmLhibrAvOst2Jx4DYxDZGeme+gZSAH8Qixc81n3vG7fkwhYw3ZgEa7mCb7bYnfSpuHURhCwzrJMHqxpyIrHG1S+kMH6iK5uUQL/NGVU3Noxryo+3N42Aha4Ixr0T9OF3PMWsPquHjUe6y+05YW1JjEIASHQR2A9iH4UbfWdJ0CEQKEJpAvEVuICEL5V+JuOCk3DVf8Rg3DKstYt1xSD2FXPDjtL34hs4iIQTpKaWA7D3tp8DFCnR4OTXi4V8WogPX1RAIFvYJA+tpD3M7Krs1KszgibYOFEO48PahQiYOW3IGqaOifsREq/9NgrP0t5jiZcHW316yLSBWkiYrmOfakJdVJHuNoTu8VFwBomYDEuiraNfJN9lqwiFqeOb2+b/Ob2nk23FbCAgXphtnw5B0LxwwmkjxL6XF/m4lAICIFtCPRdXUo/khsHZXF4icD0uYmqno10LkOLWFzrpdhKNJZlbPGpsQU1r5Zofmg4q6vB7MX5gNUowqjzs8zAcljWmbFpNS+Vmng1KGI1dTUC1ndB6Su8bXlOdn5mitgD869SCpd90Frzrp1ZiICVP82Gxq5JKWX9mQj75m8tVwt0v2Gmrlu2cPKKXC3kOy4YSujv0ENlJ1a+JEcbz92AeiYa9n1ltJ5u/XuWokxOYXm5iPvwGlgEuiwSrL5d74Ianmw2rJjQjFTva2XY9N6yhbtvHgncCALWhqixtFpf7mDLF/OUb6yYXFFedgGILs9p5mSQEBACthFIi1dED8rOK9uQiiGbCQSa4+fDoiuGFme02YWYAy2xmP+nvc2vb3sp6VZ3xlq/Kus9BwR9y+qUkk62oMnREmKcGWnzvVzQMFxwHpyVmAXF+pk2uOWGwkoXXI5VF0vZsmbFFtS+YDcAEbDsIVp3Rsyvysf/BeDp9ljM3gqBL4+Ea/RlMAVrwVBCF5TXt+LZ8tu5YIl41jF1b7mZ7jfRsE9fpuGZlo0ok2vQRSZgPWQq87vt82v/MzzfbVnREgLWDvSzwHtuuUX6w1vJmTeB1OHRsO9fI7EbLmAR8LPIWt/pWET518AacDhtVufHWKmfMLBPrhMo44SAEMibQA+Ax6Jh/2l5WxIDQsBBAlrEIk6/9BDBwXbOtJiAxkjYZ1s9GdtDdMBgIBQ/j0BXAJAaRrbzpcWgVFO0dfJLtpv2qMFgU+I4EJ8LqE/IjlEnJoneZzKbY621zzthXQQsm6jOZKNuYvIwxXgRQLlNVrMzQ3xlNOC/sdC7PoOhhH4hdER2wUvv0QnonVd4JrrW/zUtToze370eImANv4UQSbC6KNpWvXA0AYtgHR8J1z450C8YSt4D8BlblXyw6Ou8fsMTsUXBbWpqDRewLMIn2vvLYdiqItfNin9GKXrWvWUlnoSAEBhCQNe3eVeBvrM87HtayAgBrxOoDyUuYOAyERxsnan/EFNoLOySGYmaiFi2rqUBY++xZc12YpeMI9HaaDQQWuMjNs8Csa4luZuNpsewKf0D1VpiEc5qb60ZLPBrNxARsOwjGghFfYTxPwVwnH1Ws7K0UJFx3fLWSUuzGuVA5/pQ4hUGPuGA6bFqsgegX3vp2ODQiRjzAlZz8hJibgEwfoALARdGwv67shWwdP9gKPk4gC8AXDFoT+GAyHz/20PtTWuO72cx6d3eg+WpeO3G8QNCl60CVv2ZnYdwmfoRgP3H6l+h5C0ECkggyaD5sbBPCwLShEBREKhvSlzIxN8BSH4c5jVjvBmgxYB5bjQ8Wb8pH7Mt0BSfS0T6c1DXMJKWOwH9Jvw/FlvntrfVPpe7meIfGQzFz0Hf7j5ZU/lN51JiXspkXev055QIWPlN1PDR6XIxFeX65aiuBeV6Y/ClsXDNLa47HsFhMJTQP6z1ccLC7EjzAgR7YugB4eloq/+r9piz38pYF7CCoVVHAepagI4epMt8Ba/bdOfwXVMj3EK41Q4sPT7Y1HU8iO8EeI8BezSCgNW/2/EwAMZAP8cELO0gMCv+cRAtLGzBP/sXsFgUAh4nsIYZP4q1+S/weJwSnhDYhkB9c/x8ZnUyYO0NkBR3z36NvAvCG8q0blu+oPbv2Q8vvRF6J5YChRjYHcDE0svQ6Yz4Pwx6XzHdMFZ38w0nHGyKn4s+YTTgNP1StE/Avy3GFeM+SD61+Jm99JEhR5sIWPbjbWhctatpGL/sF2/sd7ADi14SsNDCKhjt+gXAfgCfchVEaTizACwn4O+RsP9rXk5prAtYadGpOXEdGFcNzhPht2zyNcMvCMpEwErbG3YUN300MOB7beCIcEPj0nGmUbVk2K7nlyvHJz+7+J6+7w5bd2BpgzNmvl2xbuKuXwHjES8vSIlNCJQQgTUMLIyF/ReWUE6SyhgjoG87Mg3zPIDOkaM6WU3+OwQ+PxKukeP7w7AFmld+FGw0EWim7JzJbk0x08Wx+urfFrrmTFZRu9A52Bw/mxgzGaRvZZNdo5kzf5eBb8fC/t9kPiS/niJg5cdve6MDZ8TrVDktcvsYnacErH44M2Zyxbqqrt8C/OHuFGewl5LVFIF+x8BD0bDP81qBCFhAoCkRIsLVAOoHFiIxWiq6cefih/2DRdpzFbBI0S0oUzdF7p/Upe0HmhInEaEVwKQBf5srzQmd901eP+jfib+IYGP8MDbUAwQ+2An7YlMICIFBAmsZWCDilayIUiEQDHVeTFDncd8uh8Gtw6WSn415dAD6Vjjr2khbzR9stFtypoKhxLcAfFt2zow6tWsAvAfGFdE2/+9G7T1GO6TfDpdVnQuGfmkku7F2sA6Y8X9EiDBwp5vilQ5JBCzn/kDrmhMBfSMYMY50zsvWlr0oYKV/bM+M7oSq8U8S+ACA5FKaHS0IQgrAk14+Mjg8fBGw9OYkrlg3IXkDCBcN8mH8VSnjsuWtkwbrGGYqYAVCie8TMGtoMXeTrX072mr/HWxe9Slwmd7dOHgagwmvYILvs7E7abDQu+07sAYSSx8lVLifQCJiufXpLn7GGoG1ILRFW/36x5k0IVAyBOpnJ2Yz4/Pg9G0/ssth25nVVw63ga2fRdtqO0pm4h1MRF8YAOBYBvQzidQx2pb12wz+A7O5oL1tyj8dnIqSMa1vUlWsTgTx/syYXDKJ2ZfIOwTrsqG3UNlnenRLImCNziifHruFuqaVwXrIlSN0jPeIcEUk7F+UT8xOjZ0+973K7g3VF0HRMWB81ik/RWyXCXgGwIZI2H9yMeUhAlbfbAWb4o0gddXQ2lUA3WtafEvHAn9U9wk0dV6iSA3uRrQsvm74McOBuQ82J+4kxt4D/20SvskmyFB4ZZsXQ4YxPTpv4hJgy76v/uaYgAVmmhZKftUi/LyYFqrEKgSKhICIV0UyURJm7gQCofh3FOhEBmZIHaM0x3eYeQmIfuD2bobcZ9FbI4NNnReBVBMAXUB0nLeiK0Q0/D5A71mw7m0P18rttVlOwfRZH9R2U8VZIMyR3ViD8N7RF0oQzNZCiVfpH1yhhL6EQGU5pZl2ZzCeiLZ5t/h0ponk0y/QuGovpYxfMUEfqXWuMa6OLnnzRjx/jN7B49m2x5zkxF4TWtSbCPBRng3U3cBWg/BcMe26GoqnPpSYz8CZThbsn2z4Kl6fR73uTkv23oKhrisBS9eB3PnD0XSvaeDWjnm+SPYWPxxR37R6DyhzLjOaAewyxNZvTKP7pI55UzcOte+cgKW/yUPxwwl0N4CP55OUjBUCQmArAvq8cTga9usjMdKEQEkT0HWMiMv0w8NpY3g31maA3wbh+uga/1NYpK+hl5YrgWCo60SQ9SXoXX5jdTeW/vkN/IvAt20EPx5vq12XK08ZB+gdfgwcBcLHwagbo0ziAN4F+I5ouOaJQjOoDyV+zsBJDsWhd77eGQ37b3PIflGYnfKNFTuPqyw/1bIwH2R/XeUBCAS+PBKuubEooLSwCkTX7kFI3QPQsQCP3VIIhMfB1vvRcO0lRTF3IwQZaOo8XZG6ioF9HMmB8dfokjeP9Lo4q3Ova+o8RpG+kXD4xQV0L1l8f8UuyfcHiqxnw6q+Kf5ZVvg6GCcDNCiOMejpzWyeNtLziaMCVjrZ5sQRinEnkD4KIk0ICIE8CBCwjoH50bD/w3PIediToUKgWAjUN8UvY6KPQf9IBMZOnQnCW8R41bKsH8cW1L5QLPNVDHHqHX4E0lfCf3KMiaNv94lX1sOF3CFTDGsk2xj1Dj8GHUFEujbQWDmqaoHxNik8BhOPRhb438mWm1P9g6HE4JETe33Qk9Gw73h7bRantYbGrgbTsObpI9oOZfA2M18Va6t53CH7jpidOmdtjWH23AWQD8B/O+LEu0YfA2BGw75Thh778m64O44sGEroYvOnOBO/+nQ0POmlYuFUH4qfyaArAOw1lAcBv7AYz1iM3w0cKRyNV7rclIE6Yvq+3jQ7tD8DT1cYdPqSeT5dm3Ob5riApT0GQ11HEfFdzHzQaMnIvwsBITAyARGvZGUIAb3TIf6/TOojbPF/EZVs3RkLoLdAeAewfhZtrdHXlktziEAgFL+USB0I5s+UuDj6NojeZFg/j7XW6B8Y0hwioGuBECktuOt6ILs65KbQZs0tb8zfgaJ/ANZjXvycCoaSPwX4VJtBfcBs3Rlrq73VZrtFay44Z+WeMMvuA3Cc7Uno44Nt/uttt+uSwWlzOnezLON2MOsb1fSu35JtzPg5KeqdsKa68Z1F1FMqiep6h8R08XCRJf/86KXK8Yljc9m1lL/v3C30i1j6FJA+Olwx1BIz7ia2/qL/n2WUryxP8d+XLaxePdCnbxeXMQWWSWQY5zHjUIC3sgHQL6lCzRq4lXCkSF0RsKbO6RhvWONmgVkfJ3TqPHruMyEjhYD3CawH6IfRsK9ot+F6H7FEWEwEgs3xK5jVPgTrYwDpN0HDvgCLKZu+WBlYTqA3AO4Cq8ejbdW/Kr4sijdivcvPIjWDwP/VvyPLlWckh4npI+dvMWgJmH8Za/P/wmF/Yn4IAb3LD1AHEFj/sC+JnaPpzynG30HoAvhJLxwX3O6ia2FVH012MVBl08LsAeMX0Tb/122yVzJmAqFV04mMe8H4nI1J/XPLN2OLp9dYhslOnZUIKkXfI/DOgN5Nzg0ZDi2GbosYtNkyNp81vFZRMQSfSYz1TYm7mKDrZw6tz5TJ0O32sQifaA/4XkMLWXkZKsDgYFPX8SDrCwD0i7+tdmMNCeddED9MjMH6WAy6FKD9AB5ZDyI8zlzWHAtPTO4oLdcezvrqYambAR6sTl8A3uJSCBQjgQ1EdF+k1fedYgxeYhYCThKon7Xqa9x368nOIDoBQLWT/hyy/c6Wekyvguhvhpl6bNnCySsc8iNmMyAQbE7oI9r7gbkMUF8C2J/BMK910bWIXmXGCgb9qr3N/2evBTiW4kkfgQbtDYWpzDiSgAnFlj8B/2bGK1D0V1NtXtQxb6queeXxxlQf6rqRwZfaEahmsOVo1FVevQ3PjhzzsaGLupNh3GXTTqOSEa+GMq07I+ZXFeNOhkWHgdK3LBfr8cLHAF4LJq7sxoWLH/brlyUl24LNyU+BrTsAOgTIv94bET1csVMiVGy7r4ZPcPp2QtCpSJf44No8FsBjYKwxy7q/k8l3i2sClk6orinxCUV0k9zMkMf0ytCxRmAjge6NhH22PHyNNXiS79giEGhKtChCHfft9P0a7HvrbjvI9I9BwsvEYIb1bDRcq2ssSPMSgXQx3uSVCggyuAxMXwXZtpPDiUzfA/ASAZbF1vOxttqHnXAiNnMnsFtzfL8yVt8gcC0zPg6ifbY9PpG7fftH8mIQvaA/pwB+MRKu0TesFVebyUZwQlIXGZ+VZ+AxAm6LhP1aoJG2HQJ1szv3Nix1JwN6d0aurSTFq+Ew6mav3duwei9hXQCfUe9gHbFc52GrcUz0FDGv0t8xBqWuXNo6ZaUthovESHB28ixY/C0AewLIuTg/gx7C2g3fjC0KbiqS1HcY5rTm+H4W8FWAdgend2Ttnlle3E3AUwB1KdO8KpuXt64KWDqZabMSR1oG3QDmT2eWnPQSAmOUAGETMd0dCfv0laXShIAQyJSA/sFSlWwBUY0ewsy6qPIBfTtqCtbiDLxKRNF0TMCfYq3VDxdL4c6CUfOK4zl/K683d7+SiSanQ2ItkKZ3Zrn+HDUEyWYQvwOo1/T/I6a/RIKTHirG4whemWY34wg0JU4ifYGAonHEXMbpWk1k2/GUHHPR5Qr+CcJb6fEWvRptm/SjYv+cOmQOl68yk/pWuAkAZ3n8jzsBepqAN0S8ymxVTW3q3Ecp4zZi/lJmIz7spY/RM6xrS+HYYOa5MwUauw6gMpzTN4angKEvgij8sWPmx6FUWqjiVOqOWEPt+2P5O6Y+1HUmgw8H8wmgrG+c3Qjg0Z6e3vNWPrTrhszXR7H0ZAqEkiGi9C61vpXMbFC/2EeAyYAFor7LNSzeYFiVty1buEvWpw4K8uA1bXbiSMvkG0AkIlaxrEmJ020CmwG6Mxr2Xe62Y/EnBEqNQLA5fgJYf99QeTo3QhmYzwAw3qFce0H4D5j0rYHp2gYMK2YZFb/smFf1fw75FLMuEqhvjl8GKH0cLP0cReBKBjUC3LfGnGkxAE8D1Nu3prCBLfPl9gW1TznjTqy6RmBAIO27sQxgi5j0UUM60NHasYT2LUdingQj1f9zYzWTejbWWv28a7m76EjfDKdSvd8D4b8J6R0vO2omwEsBeqCnx3f/yoeoBH9wOgd/amN8X0PhPCZqIOCLGXj6J0AvIb0jueaJDPqXbJdpzSt2t1D+VTAN1MnSu8oPcP4EE/8OwPuAMgfgpkC3fRCuXl6ysHNJbCYbgQmJc0jR12HxgSDaKQMzC8HcsXmddWPnosnrM+hfGl1mstGwM8qBZWhoWJZ6vuUYvbbyvh22IAIWwFQ/e81/sZW6qf8saWlMkmQhBGwhwN2Aui0a9l1pizkxIgSEwNYE5nB50ExeDdq2GCczE5EqY07filKngKms34amG+kfeR36IQTAShBSoPT/26oRcw8T/T265tmfY9HJgw+CMg2lS6ChkcdZRuJaJtrmMgECGXo9UfooIvZD3w/n/uMHungrrwVoOdhaAlIfMHOKVJ/wuVWzePGEdSvnv7No/5K53al0V0T+mdWHkl9mfVpBjXBUxeJxTBQk8CFbLnjZzi2HrF+Evb7lOPW/0qIn8TafVcz0/hSj+oHX5/WJomOhNTQuHWcZE89k4n21AK2Anbdc2X4YAC0eLgfTP6G4Ny3qMb8dbatZOBa4OJVjMJQ8AMSh9Ddo32dhFdJCLW8EcxxqQJDnl+R21O3MwsxHjeDEo48EjK8O76HXsOZKhGq2rABIBcDW1GGiyhqA3wWp/8Cy1jFRivShxWFNsfng8vfffgvPH7PNZ4VT66OY7dY3J45lxlHpZ8n0MyMdBWCf9EsHxh9A9N7A566RUtcOvY2vmPP2QuwFErCA2nNW7bJTN53OUPpHesALMCQGIeABAvqB83YRrzwwExLCmCUwYyZXrKhIjtupMrW7ImN3BZX+jrIUUmyllrGiJbR6czTWGejF89sKWGMWnCQ+IoGZM9l4cdzKcWXlNJ1U2aFg3puY0gIWKS1gWUkC/pMi/ld57/rIsoaGnrF8REOW0egE9O3eyho3XcE6mi3a3k6ijUT8Qsrw/7ljKvSakh+l26Bl2mNOV1UPW58hk6dYwL8nrqv50zuLSETi0Zdh9j1msrHrLut95ap3Sgq0bqoxqWMsiafZA8tkBBPmoCyYitdC8Z6AMZ0YDczYeWA0ESWY+fWKioo3Jlm7dL0+T++47D/GlYkL6TMqgRktXLE+0nkikzqIoBRSalFt5cQ3ZX2Pii6nDgUTsHS0DY1dDVYZf5s5rcw7dZQjJzAySAi4TECXcv6Hvi0q1ua/1mXf4k4ICAEhIASEgBAQAkJACAgBISAEhICnCRRUwNJkpoW6DrbIugoMff25PuMrTQiMNQLM4FvYYqllMtZmXvIVAkJACAgBISAEhIAQEAJCQAgIgYwIFFzA0lEGZsU/ToquA3BcRlFLJyFQQgSIVUuk7P0bMO/QMVODooSmT1IRAkJACAgBISAEhIAQEAJCQAgIARcIeELA0nlOm5U40lJoAXCsC3mLCyHgCQLMaJEjg56YCglCCAgBISAEhIAQEAJCQAgIASEgBDxMwDMC1qCIZeBqcFrEkuOEHl44Elq+BPStK3RdNDzpe1JIMV+WMl4ICAEhIASEgBAQAkJACAgBISAESp2ApwQsDbuuOXGEYr4EIH2ccJdSnwDJb+wRINAtzLwyWu/7vtw0NfbmXzIWAkJACAgBISAEhIAQEAJCQAgIgewJeE7ASotYTSsPNFT56cz4KqCvBJUmBEqEAPMVhmXct2xh9eoSyUjSEAJCQAgIASEgBISAEBACQkAICAEh4DgBTwpYOuvAGfE6VKhjiPksAP/PcRLiQAg4TYD5isqdu25ffM9e3U67EvtCQAgIASEgBISAEBACQkAICAEhIARKiYBnBSwNecZMrlg7MX4kLLqaiI4pJfCSyxgiwLidiZaVmWtaly3cffMYylxSFQJCQAgIASEgBISAEBACQkAICAEhYAsBTwtYAxnWNSU+QcB3ifAZW7IWI0LAJQLE/L+GMhcsbZ28Soq1uwRd3AgBISAEhIAQEAJCQAgIASEgBIRAyREoCgFLU9fF3cnC90TEKrk1WKIJ0WKA7+vp6Z238qFdN5RokpKWEBACQkAICAEhIASEgBAQAkJACAgBVwgUjYClaQRmxT+uCHOZ6AsAql0hJE6EQJYE9K4rS6k3sWbDc7FFwU1ZDpfuQkAICAEhIASEgBAQAkJACAgBISAEhMAwAkUlYOnYpzbG9y0z6CMMXCDF3WU9e4kAE68i0C2VmzB/8cP+tV6KTWIRAkJACAgBISAEhIAQEAJCQAgIASFQzASKTsBKw25hVRdLHq6Ybgb4qGKeAIm9NAgQ+HIofmtTec3znffR+tLISrIQAkJACAgBISAEhIAQEAJCQAgIASHgDQLFKWD1sws2xg9jg2YDfCKBar2BVKIYUwQIj4LUM0Yvnli2sHr1mMpdkhUCQkAICAEhIASEgBAQAkJACAgBIeASgaIWsDSjac2rd7dMc29SuIaBT7jETdwIAYD5CrOs4rFJXROWvLOIegSJEBACQkAICAEhIASEgBAQAkJACAgBIeAMgaIXsAawBJs6DwWp6wE+BqBKZ3CJVSGgCfBVBP6nhYo/xcITk8JECAgBISAEhIAQEAJCQAgIASEgBISAEHCWQMkIWBpT/ezE/myiDoTvATjUWXRifawRIKAVhN+aPeXPtT9YlRhr+Uu+QkAICAEhIASEgBAQAkJACAgBISAECkWgpASsAYjTQqsONmF8mYDZAAKFgit+S4bAB2DcVkbqF0uDk9rRQqmSyUwSEQJCQAgIASEgBISAEBACQkAICAEhUAQESlLA0tynzllbQ1bvdMX4IYADi2AuJETPESCLma8zgN+Rpd6VIu2emyAJSAgIASEgBISAEBACQkAICAEhIATGCIGSFbAG5q+uaeWBimgiYNwPYMYYmVdJM18ChOsB+r2pNr/bMW9qPF9zMl4ICAEhIASEgBAQAkJACAgBISAEhIAQyJ1AyQtYA2gCjcmPkOLdQPQDgKfnjkxGljYB+p6y+Nfd6HlvxYLdOks7V8lOCAgBISAEhIAQEAJCQAgIASEgBIRAcRAYMwJWejpmshGs6tqPFM9gE3eAUFcc0yRROkzABNHNzNYvLaNniey4cpi2mBcCQkAICAEhIASEgBAQAkJACAgBIZAlgbElYPXDaWjkcabRNZ1gHWIR3UKMyVlyk+6lQWAJgHuVZb3QW14Z6ZhXJUcFS2NeJQshIASEgBAQAkJACAgBISAEhIAQKDECY1LAGpjDqXM6xpf1VjakyniqYeEnANWW2PxKOiMT+JkiY16v1ds+vlt9sPhh/1oBJQSEgBAQAkJACAgBISAEhIAQEAJCQAh4l8CYFrAGp6WFy+ra1+1hoLecLbwIwOfdKZPIciZA9AMivp/ISi6fWtOJFkrlbEsGCgEhIASEgBAQAkJACAgBISAEhIAQEAKuERABaxjqQGjVdIvJMKCeBDAdBGHk2nJ0xNHLZOGuFFlvoaw3IfWtHGEsRoWAEBACQkAICAEhIASEgBAQAkJACDhKQMSZ7eCdOidZr8xUhWEZky2DXgBzmaMzIcbtJGCCsZDJvImYNlbuXJNYfA912+lAbAkBISAEhIAQEAJCQAgIASEgBISAEBAC7hEQAWs01jPZ2K1qdaDSBJnKuhKE0GhD5N8LRYAeMUz6XzLAZgWtjdw/qatQkYhfISAEhIAQEAJCQAgIASEgBISAEBACQsA+AiJgZcFyjznJid0WTzAso4KV+QgYh2UxXLo6QoCesIjnatNGubFBRCtHIItRISAEhIAQEAJCQAgIASEgBISAEBACBSUgAlZO+JkCobXVZWZ3BZdV7GRa5hUkO7NyIpnDoDUg+rGRSn23b2z55mULq1fnYEeGCAEhIASEgBAQAkJACAgBISAEhIAQEAJFQkAErLwniqn2nM6djU3mTjsZSvXA2F8xPZu3WTEwlMDryrLmdCMVVeXM5ia1aeVDu24QREJACAgBISAEhIAQEAJCQAgIASEgBITA2CAgApbd8zyTjfqaNVXarNlr7mwAX2PGnXa7KW17vNhinmNUlr+h81y/1jSTe/nWo4Ws0s5bshMCQkAICAEhIASEgBAQAkJACAgBISAERo7HSWYAAAFUSURBVCIgApbD6+KQOVy+PBUfp91Y3atp5/KJB8JQbQBNd9h1cZgnbGLQ45st86yBgI1e01q5+cXNWHSyWRxJSJRCQAgIASEgBISAEBACQkAICAEhIASEgJMERMByku5ItltaVMOyMytSG8oG2dPOOx0AhRtA9Fm3w3HVnxarWN2EtetvHeq3CmvNdxbt3+NqLOJMCAgBISAEhIAQEAJCQAgIASEgBISAECgaAiJgeWKqmNACY8bbUEPD2VS1ercUm6cTUTMDu3si1AyCIMIfoeiaXbqqXxve/R0sMmVnVQYQpYsQEAJCQAgIASEgBISAEBACQkAICAEhMEhABCzPL4a0uLXdeTqkA8ZKM3GwUvRFZjoazAcBSNfgsrUR2gG8DKLnLean2he/uQJHHz1yTaprwCBiW/2LMSEgBISAEBACQkAICAEhIASEgBAQAkJgzBL4/+EVpvu7pZy8AAAAAElFTkSuQmCC;" vertex="1" parent="WIyWlLk6GJQsqaUBKTNV-1">
          <mxGeometry x="410" y="120.9" width="80" height="18.2" as="geometry" />
        </mxCell>
        <mxCell id="YCrHfRIdKmsX8eZ21hxe-7" value="qbittorrent" style="rounded=1;whiteSpace=wrap;html=1;" vertex="1" parent="WIyWlLk6GJQsqaUBKTNV-1">
          <mxGeometry x="570" y="100" width="120" height="60" as="geometry" />
        </mxCell>
        <mxCell id="YCrHfRIdKmsX8eZ21hxe-8" value="jellyfin 媒体服务器" style="rounded=1;whiteSpace=wrap;html=1;" vertex="1" parent="WIyWlLk6GJQsqaUBKTNV-1">
          <mxGeometry x="400" y="-10" width="120" height="60" as="geometry" />
        </mxCell>
        <mxCell id="YCrHfRIdKmsX8eZ21hxe-9" value="AniRss 自动订阅" style="rounded=1;whiteSpace=wrap;html=1;" vertex="1" parent="WIyWlLk6GJQsqaUBKTNV-1">
          <mxGeometry x="270" y="-10" width="120" height="60" as="geometry" />
        </mxCell>
        <mxCell id="YCrHfRIdKmsX8eZ21hxe-10" value="Calibre Web 在线图书" style="rounded=1;whiteSpace=wrap;html=1;" vertex="1" parent="WIyWlLk6GJQsqaUBKTNV-1">
          <mxGeometry x="530" y="-10" width="120" height="60" as="geometry" />
        </mxCell>
        <mxCell id="YCrHfRIdKmsX8eZ21hxe-12" style="edgeStyle=orthogonalEdgeStyle;rounded=0;orthogonalLoop=1;jettySize=auto;html=1;exitX=0.5;exitY=0;exitDx=0;exitDy=0;entryX=0.511;entryY=1.005;entryDx=0;entryDy=0;entryPerimeter=0;" edge="1" parent="WIyWlLk6GJQsqaUBKTNV-1" source="YCrHfRIdKmsX8eZ21hxe-1" target="YCrHfRIdKmsX8eZ21hxe-2">
          <mxGeometry relative="1" as="geometry" />
        </mxCell>
      </root>
    </mxGraphModel>
  </diagram>
</mxfile>
